<svg viewBox="0 0 2613.5 1309.1" xmlns="http://www.w3.org/2000/svg"><g fill="#f59d89"><path d="M1.1 873.1c.8 0 1.6.8 2.4.8 0 .8-.8 1.6-.8 1.6-.8.8-1.6.8-1.6.8H.3c0-.8-.8-1.6 0-1.6 0-.8.8-1.6.8-1.6zm1240 28.3c-.8.8-1.6.8-1.6.8-5.5-.8-11-.8-17.3-1.6-4.7 0-9.4-.8-14.9-.8-.8 0-1.6-1.6-3.1-1.6-14.2-1.6-28.3-3.9-43.3-3.9h-6.3c-.8-.8-2.4-1.6-3.1-1.6l-36.2-2.4c-2.4 0-5.5 1.6-8.7 2.4v-.8h-20.5v-1.6h13.4c-2.4-2.4-5.5-1.6-7.9-1.6-2.4-.8-5.5 0-8.7-.8h-7.9c-10.2-2.4-20.5-2.4-30.7 0-2.4.8-4.7.8-7.1.8l-37.8-2.4h-16.5c-3.9 0-7.9 0-11.8-.8 3.9-1.6 7.9-.8 12.6-.8 3.9-.8 7.9-.8 11.8-1.6-2.4 0-4.7-.8-6.3-.8-22 .8-44.1-3.1-66.1 0h31.4c-1.6 1.6-1.6 1.6-2.4 1.6-12.6.8-26 .8-38.6-.8-10.2-.8-20.5-.8-30.7-.8-2.4 0-4.7 0-7.1-1.6H908c-14.2-3.1-27.5-1.6-41.7-3.1-14.2-.8-27.5-.8-41.7-.8 2.4 3.1 4.7 1.6 7.1 1.6 3.1.8 6.3 0 9.4 0h17.4c-.8 3.1-3.1 2.4-4.7 2.4h-28.3c-3.9 0-8.7-.8-12.6-3.1l-6.3-2.4c-14.2 0-28.3-.8-44.1 0 3.9 2.4 7.1 1.6 9.4 1.6h34c0 2.4-1.6 1.6-2.4 1.6-17.3 0-35.4.8-52.7-.8-7.9-.8-16.5-.8-24.4-.8-13.4 0-26.8.8-40.1-.8-20.5-1.6-41.7-.8-62.2-1.6h-13.4c-1.6-.8-3.9-.8-5.5-.8-5.5 0-7.9 2.4-9.4 7.9-.8 4.7-1.6 9.4-3.1 14.9-3.9 21.2-7.9 43.3-12.6 65.3-2.4 14.9-5.5 29.9-7.9 44.8l-7.1 41.7c-1.6 7.1-3.1 14.2-3.9 21.2l-4.7 29.9c-3.1 19.7-7.1 38.6-9.4 58.2-1.6 11.8-4.7 23.6-4.7 36.2-.8 11.8-2.4 22.8-3.1 34.6-.8 3.9 0 7.1-.8 10.2 0 7.1-.8 13.4-1.6 19.7v14.2c-1.6 0-3.9 0-4.7.8-2.4 4.7-5.5 4.7-9.4 3.1-2.4-.8-3.9-1.6-6.3-1.6-7.1 0-10.2-2.4-11-9.4 0-7.9-.8-15.7-.8-23.6 1.6-18.1 3.1-37 5.5-55.1l7.1-62.2c2.4-14.2 5.5-29.1 7.9-44.1 3.1-22 7.1-44.8 10.2-67.7 7.1-42.5 14.9-85 22.8-127.5 0-2.4.8-4.7.8-7.1s-1.6-3.9-3.9-4.7c-1.6 0-3.1-.8-4.7-.8-18.1.8-35.4-.8-53.5-1.6-35.4-.8-70.8 0-106.2 0-4.7 0-9.4-.8-13.4-.8 14.2-1.6 29.1-.8 43.3-.8 15.7-.8 30.7 0 45.6 0s29.9-.8 44.8 0c14.2.8 29.1 1.6 44.1 0-1.6 0-3.1-.8-4.7-.8-40.1-1.6-80.3-1.6-119.6-1.6-30.7 0-61.4-1.6-92.1-1.6-27.5-.8-55.9 0-83.4 0h-7.9c.8 2.4 3.1 1.6 3.9 1.6h105.4c-.8 3.1-2.4 2.4-3.9 2.4h-26c-3.1 0-6.3.8-10.2 0h-70c-3.9 0-7.1 2.4-8.7 6.3 0 1.6-1.6 3.1-1.6 4.7-11 29.1-22 57.4-30.7 86.5l-4.7 11.8c-.8-2.4-1.6-1.6-2.4 0h.8l-2.4 7.1c-.8 2.4-1.6 3.9 0 6.3 0 .8 0 1.6-.8 2.4-5.5 9.4-6.3 9.4-.8 19.7-2.4 3.1-4.7 3.1-7.9 2.4-2.4-.8-3.9-2.4-4.7-5.5v-10.2c.8-4.7.8-9.4 2.4-14.2 6.3-30.7 13.4-62.2 24.4-92.1l4.7-14.9c.8-2.4.8-5.5.8-7.9-3.1-1.6-6.3-2.4-9.4-3.1 1.6-2.4 3.9-.8 4.7-2.4l-.8-.8h-17.3c-22.8 2.4-46.4 1.6-69.2 1.6-14.9 0-29.1 0-44.1 1.6-2.4.8-6.3.8-9.4.8-11 0-22-.8-33.8 1.6H24c-3.9 0-7.1.8-11 0 5.5-1.6 11-3.1 15.7-3.9 3.1-2.4 7.1-3.1 11-3.1 7.9 0 16.5 0 24.4-1.6 3.1-.8 7.1-.8 10.2-.8 0 2.4-1.6 1.6-2.4 1.6-.8.8-2.4.8-3.1.8l.8.8c5.5.8 10.2 0 15.7-2.4 2.4-1.6 6.3-2.4 9.4-2.4 19.7-1.6 38.6-2.4 58.2-3.1l62.9-2.4c4.7 0 7.1-1.6 8.7-5.5s3.1-7.1 3.9-11c11.8-33.8 25.2-67.7 38.6-101.5l21.2-49.6c14.2-35.4 29.9-70 45.6-104.6l19.7-40.9c3.1-6.3 6.3-12.6 9.4-18.9 11-23.6 23.6-47.2 35.4-70.8 11.8-22 23.6-44.1 36.2-66.1 10.2-18.9 21.2-37 32.3-55.9l13.4-21.2c5.5-10.2 11.8-20.5 18.1-29.9l10.2-17.3c12.6-18.1 24.4-37 36.2-55.1l35.4-49.6c10.2-14.2 20.5-28.3 30.7-42.5l1.6-2.4c18.9-22.8 37-46.4 57.4-68.4 11.8-11.8 23.6-23.6 37.8-33 6.3-3.9 12.6-7.1 19.7-8.7 14.9-4.7 27.5-.8 40.9 4.7 14.9 5.5 20.5 17.3 21.2 32.3.8 2.4.8 5.5.8 7.9.8 7.1 0 14.2-1.6 21.2-1.6 7.1-2.4 14.2-3.1 20.5l-7.1 45.6c-.8 2.4-.8 3.9-.8 6.3-.8 3.9-2.4 7.1-3.1 11-4.7 17.3-8.7 35.4-12.6 52.7-3.1 11.8-5.5 22.8-7.9 33.8-.8 2.4-.8 4.7-.8 7.1v3.9c0 .8 0 3.1-.8 3.1-4.7 3.1-4.7 7.9-3.1 11.8-.8 3.9-.8 8.7-4.7 11l-2.4 11.8v-.8c-3.9 7.1-4.7 14.2-6.3 21.2-.8 2.4-.8 3.9 0 6.3-.8 3.1-3.1 5.5-2.4 9.4 0 2.4-1.6 5.5-3.1 7.9-2.4 3.1-3.9 6.3-3.1 10.2 0 2.4 0 4.7-1.6 6.3-4.7 10.2-4.7 21.2-7.1 32.3-1.6 3.9-2.4 8.7-4.7 11.8-3.1 5.5-4.7 11.8-6.3 18.1-.8 2.4-1.6 4.7-1.6 7.1-1.6 4.7-2.4 9.4-3.9 14.2 0 1.6-.8 2.4-.8 3.9.8 8.7-3.1 16.5-4.7 24.4-.8 2.4-2.4 4.7-3.1 7.9-.8 1.6-1.6 2.4-1.6 3.9-3.9 20.5-9.4 39.3-14.9 59-3.9 13.4-7.1 26.8-10.2 40.1-1.6 5.5-3.9 11-4.7 17.3-3.1 11-5.5 22-9.4 33-2.4 6.3-3.1 13.4-4.7 19.7-3.9 17.3-7.1 34.6-11 51.1-2.4 7.9-4.7 15.7-6.3 22.8l-19 89.5c-1.6 7.1-3.1 14.2-4.7 21.2l-4.7 25.2c-.8 3.1.8 4.7 3.9 5.5h6.3c14.2.8 28.3 1.6 42.5 1.6l74 2.4c18.1.8 37 .8 55.9 1.6l44.8 2.4c16.5.8 33 .8 49.6 1.6 20.5.8 40.9 2.4 61.4 3.1 7.1 0 14.2 0 21.2.8 21.2.8 42.5 2.4 62.9 3.1l46.4 2.4c20.5 1.6 40.9 3.1 61.4 4.7l46.4 4.7c12.6 1.6 26 3.9 38.6 5.5 3.9.8 7.1 1.6 11 3.9-4.7 1.6-8.7 0-11.8-.8-3.9 0-7.9-.8-11.8-1.6-3.1 0-6.3-.8-10.2-1.6-3.1 0-7.1 0-11-.8-3.9 0-7.1-1.6-12.6 0 5.5 2.4 11 1.6 14.9 2.4 4.7.8 9.4.8 14.2 1.6l13.4 2.4c4.7.8 8.7 2.4 13.4 3.1 4.6.8 9.3 1.6 14 4zM46.8 866h-3.9v.8h3.9zm48.7-3.2c-2.4 0-3.9 0-6.3-.8 1.6 2.4 4 2.4 6.3.8zm0 7.1h14.2v.8H95.5zm119.6-11c-.8 0-1.6-.8-3.1-.8-10.2 0-21.2 0-31.5 1.6h-12.6c-11 .8-22.8 0-34.6.8-7.9 0-15.7.8-23.6 1.6-.8 0-.8.8-2.4 1.6 10.2 0 18.9 0 28.3-.8 3.9-.8 7.9-.8 11.8-.8 22-.8 44.1-.8 66.1-1.6zm-91.2 11h.8l-.8.8zm75.5 79.5c-3.9 6.3-6.3 13.4-6.3 20.5-.8 3.9-2.4 7.9-3.1 11.8-1.6 3.9-2.4 8.7-3.1 12.6-.8 3.9-1.6 7.9 0 11 2.4-9.4 3.9-18.9 6.3-28.3v-7.1c3.8-6.4 4.6-12.7 6.2-20.5zm-2.4 43.3v-6.3c1.6 2.3.8 3.9 0 6.3zm2.4-13.4h1.6c-.8 0-.8.8-1.6 1.6zm3.9-44.9c0 .8 0 .8-.8 1.6v.8l.8-.8zm7.1-23.6c0 .8-.8 1.6-.8 1.6l.8-.8zM566 845.5c.8-1.6.8-2.4.8-3.9 3.9-17.3 7.1-34.6 10.2-51.9l14.2-66.1c4.7-22 10.2-43.3 14.9-64.5 3.1-10.2 5.5-21.2 7.9-31.5 4.7-18.1 8.7-37 13.4-55.1 7.9-30.7 16.5-60.6 24.4-91.3 4.7-16.5 8.7-33 13.4-50.4l4.7-18.1c4.7-15.7 9.4-31.5 14.2-47.2 5.5-22.8 11-45.6 17.3-68.4 4.7-18.9 11-37.8 15.7-56.6 4.7-21.2 11.8-41.7 15.7-62.9 3.9-19.7 9.4-39.3 13.4-59 5.5-25.2 8.7-49.6 8.7-75.5 0-7.1-.8-14.2-3.9-20.5-3.1-1.6-5.5 0-7.9 1.6-7.1 4.7-14.2 9.4-21.2 15.7-22 18.9-41.7 41.7-59.8 64.5-25.2 31.5-50.4 63.7-73.2 96.8-19.7 29.9-39.3 58.2-59 88.1-18.9 29.9-36.2 59.8-54.3 89.7l-14.2 24.4c-3.9 7.1-7.9 13.4-11.8 19.7-7.9 14.2-14.9 28.3-22 42.5-17.3 32.3-35.4 63.7-50.4 96.8-.8.8-.8 2.4-1.6 3.1-11 22.8-22.8 44.8-33.8 67.7l-21.2 46.4c-11 25.2-22.8 50.4-33.8 76.3-12.6 28.3-23.6 57.4-35.4 86.5-1.6 3.1-3.1 6.3-1.6 10.2 3.9 1.6 7.9 1.6 11.8 1.6 7.1 0 14.2-.8 22-.8 51.1 0 103.1-.8 155-.8h51.9c16.5 0 32.3.8 48.8.8 6.3.8 11.8 0 17.3 0 6.3 0 7.1 0 9.4-7.9zm-269 13.4h-44.8l-.8.8c7.8 2.3 30.6 2.3 45.6-.8zm30.6-1.6c-.8 0-.8 0-.8-.8l-.8.8h.8zm-.7-205.3h.8v-.8h-.8zm14.9 206.1c0-.8-.8-.8-.8-.8h-.8l.8.8zm3.2-243.9l1.6-3.9c.8-.8 1.6-2.4 2.4-3.1v-.8c-.8 1.6-1.6 3.1-2.4 3.9-.9 1.6-1.6 2.3-1.6 3.9zm18.8-71.6l1.6-3.9c-.8.8-1.6 2.3-1.6 3.9zm39.4 314.7c-17.3-1.6-32.3-1.6-37.8 1.6 13.4-.8 25.2-.8 37.8-1.6zm-35.4-322.5c0-.8.8-2.4 1.6-3.9.8-.8 1.6-2.4 1.6-3.1l2.4-4.7v-.8l-.8.8c0 1.6-.8 3.1-1.6 3.9 0 1.6-.8 3.1-1.6 3.9-.8 1.5-1.6 2.3-1.6 3.9zm12.6 5.5l2.4-3.1v-.8c-.9 1.5-1.7 3.1-2.4 3.9zm9.4-50.4l.8-.8h-.8zm7.9 15c-3.1 4.7-4.7 10.2-7.1 14.9 1.6-1.6 3.1-3.1 4.7-5.5l7.9-17.3zm14.9-27.6c2.4-1.6 3.1-3.1 3.9-5.5-1.5 2.4-2.3 3.9-3.9 5.5zm33.9-62.1c3.1-2.4 4.7-4.7 5.5-8.7-2.4 2.4-4 5.5-5.5 8.7zm14.9-26l.8-.8c.8-1.6 2.4-3.1 3.9-4.7l-4.7 4.7zm25.2 469.7c-4.7 0-9.4-.8-14.2.8 4.7 1.6 9.5 1.6 14.2-.8zm-11-492.5c0-1.6.8-2.4 1.6-3.9 1.6-1.6 2.4-3.9 3.9-5.5-1.6 1.6-3.1 3.1-3.9 5.5-.9.7-1.6 2.3-1.6 3.9zm22-67.7h.8v-.8zm2.4 27.6c2.4-3.1 3.1-4.7 3.1-7.1-1.6 1.5-3.1 3.9-3.1 7.1zm33 531.8h-15.7c-5.5 0-10.2 0-15.7.8 10.2 1.6 21.2 0 31.4-.8zm-26.8-546c-.8 1.6-1.6 3.9-1.6 5.5 1.6-1.6 3.2-2.4 1.6-5.5zm5.6-8.7l.8.8c.8 0 .8 0 1.6-.8-.8 0-.8-.8-.8-.8s-.9.8-1.6.8zm22.8 789.2c.8-4.7.8-10.2 1.6-14.9 2.4-7.1 3.1-14.9 3.1-22.8l2.4-6.3c1.6-11 3.1-21.2 4.7-31.5 1.6-5.5 1.6-11.8 2.4-17.3-.8 1.6-1.6 3.1-1.6 4.7-1.6 5.5-2.4 10.2-3.1 15.7-1.6 11.8-4.7 22.8-4.7 34.6-3.1 7.1-3.9 14.9-3.1 22.8-.8 2.4-2.4 3.9-2.4 6.3-2.4 15.7-5.5 31.5-7.9 47.2-2.4 17.3-4.7 33.8-6.3 50.4-2.4 22-4.7 43.3-6.3 65.3-.8 3.1 0 7.1 0 11 0 .8.8 2.4 1.6 3.9 1.6-2.4 3.1-3.1 3.1-4.7.8-3.9 0-7.9 0-11.8 0-5.5-.8-11-.8-16.5h.8c.8 2.4.8 4.7.8 7.9 1.6-6.3 1.6-11.8.8-18.1-.8-4.7-.8-9.4.8-14.2.8.8.8 2.4.8 3.9h.8c-.8-1.6-.8-3.1-1.6-3.9 0-3.1 0-6.3.8-9.4.8-7.9.8-15.7 3.1-22.8 0-4.7 0-8.7.8-13.4zM581 916.3c3.9-8.7 5.5-18.9 5.5-28.3-.8.8-1.6 2.4-1.6 3.9-1.6 7.9-2.3 16.6-3.9 24.4-1.6 3.1-1.6 6.3-1.6 10.2-.8 3.1-2.4 5.5-3.1 8.7l-14.2 79.5c-1.6 5.5-1.6 10.2-1.6 15.7-3.1 4.7-3.9 10.2-4.7 15.7l-9.4 62.9c-6.3 38.6-12.6 76.3-15.7 114.9-.8 11.8-.8 22.8-1.6 34.6 0 .8 0 3.9 3.1 3.9v-8.7c1.6-18.9 2.4-37.8 4.7-56.6 3.1-25.2 6.3-51.1 10.2-77.1 3.1-18.9 6.3-37 8.7-55.1 2.4-11.8 4.7-22.8 4.7-34.6 1.6-5.5 3.1-11.8 3.9-17.3 3.9-18.9 7.1-37.8 10.2-55.9l4.7-30.7c1.7-3 1.7-6.9 1.7-10.1zm-32.3 81.9c.8-1.6 2.4-3.1.8-4.7-1.6 1.5 0 3.1-.8 4.7zm6.3-32.3c-3.1 5.5-3.9 10.2-3.9 18.1 3.9-7.1 3.9-12.6 3.9-18.1 1.6-3.9 1.6-7.9 1.6-11.8 4.7-9.4 4.7-19.7 5.5-29.9 3.1-8.7 5.5-18.9 5.5-28.3-3.9 9.4-4.7 18.9-5.5 28.3-3.9 10.2-4.7 19.7-5.5 29.9-1.6 3.9-2.4 7.9-1.6 11.8zm15-84.2c-2.4 3.9-2.4 7.1-1.6 11.8 1.6-3.9 1.6-7.8 1.6-11.8zm6.3-33c3.1-6.3 3.1-6.3 3.9-15.7-3.1 5.4-3.9 7-3.9 15.7zm22-97.6c2.4-9.4 4.7-19.7 7.9-29.9 0-2.4 0-5.5.8-7.9 2.4-12.6 5.5-24.4 8.7-37 .8-3.9 2.4-7.9 3.1-11.8l2.4-7.1c0-2.4 0-4.7 2.4-6.3.8-.8.8-1.6.8-3.1-.8-1.6-.8-3.9 0-5.5l2.4-7.9c0-2.4 0-4.7 2.4-5.5.8-.8.8-2.4 1.6-3.1-1.6-3.1-1.6-5.5-.8-8.7l2.4-8.7c.8-3.1 1.6-7.1 2.4-10.2l2.4-8.7c1.6-3.1 3.1-6.3 4.7-8.7v-.8c-1.6-2.4-1.6-3.9 0-6.3 1.6-10.2 4.7-20.5 7.9-29.9v1.6c.8-.8.8-1.6 1.6-1.6h-1.6c0-4.7.8-9.4 3.9-13.4 0-3.1.8-5.5 1.6-7.9s1.6-4.7 1.6-7.9c.8-2.4 1.6-4.7 2.4-7.1v1.6l1.6-1.6c.8-2.4 1.6-4.7 1.6-7.1h.8V499c.8-.8.8-2.4 0-3.1v-1.6.8c-.8 0-.8-.8-.8-.8l2.4-7.1s0 .8.8 1.6c0-.8.8-1.6.8-1.6l2.4-7.9c1.6-2.4 1.6-4.7 1.6-7.1 3.9-6.3 4.7-14.2 5.5-21.2 3.1-3.9 3.9-8.7 3.9-13.4 1.6-2.4 2.4-4.7 1.6-7.1 4.7-6.3 5.5-13.4 6.3-21.2 2.4-3.9 3.9-8.7 3.9-13.4h-.8c3.9-6.3 5.5-13.4 6.3-20.5.8-3.1 2.4-6.3 3.9-9.4 7.9-30.7 16.5-61.4 24.4-92.1.8-3.1 1.6-7.1 1.6-10.2 5.5-11 7.9-23.6 9.4-36.2 2.4-2.4 2.4-4.7 2.4-7.1 1.6-2.4 1.6-5.5 1.6-7.9 3.9-7.1 5.5-14.9 5.5-22.8l2.4-7.1c.8-3.1.8-5.5 1.6-7.9.8-.8.8-.8.8-1.6-.8.8-.8 1.6-.8 1.6h-1.6l2.4-16.5c.8-2.4.8-3.9 1.6-5.5 0-1.6 1.6-3.9 0-5.5-.8.8-1.6 2.4-1.6 3.1l-7.1 26c-8.7 33-16.5 66.9-26 100.7-19.7 74-40.9 147.9-60.6 222.7-15.7 60.6-30.7 121.9-45.6 183.3-10.2 40.1-18.1 81.8-26.8 122.7-.8 3.1-.8 6.3-1.6 10.2 0 1.6-.8 3.1-.8 3.9 0 0 .8 0 .8.8v-4.7c1.6-3.1 3.1-6.3 3.9-10.2 3.4-17.6 6.6-35.7 11.3-54.6zm-10.2 130.6c-2.4 1.6-1.6 2.4-.8 3.9.8-1.5 1.6-2.3.8-3.9zm18.1-84.2c7.9-37.8 16.5-76.3 26-114.1 10.2-44.1 21.2-88.1 33-132.2 15.7-60.6 32.3-121.9 49.6-183.3 14.9-54.3 29.9-108.6 43.3-162.9 5.5-22.8 10.2-45.6 15.7-68.4l2.4-15.7c-.8 0-1.6 0-1.6-.8-1.6 5.5-3.1 10.2-3.9 14.9-9.4 42.5-19.7 84.2-31.5 126.7-11 43.3-22.8 86.5-34.6 129.8-11.8 42.5-23.6 85-34.6 128.2-7.9 28.3-14.9 56.6-22 85-11 43.3-21.2 86.5-31.5 129.8-6.3 28.3-11.8 56.6-18.1 85-1.6 7.9-3.1 16.5-3.9 24.4-.8 1.6-.8 2.4-.8 3.9 1.6-1.6 2.4-3.9 3.1-6.3 3.1-14.9 5.4-29 9.4-44zm7.8 73.2c-.8 0-1.6 0-3.1-.8h-5.5v.8zm66.9.8h-60.6c3.1.8 5.5 1.6 8.7 1.6h51.9zm-20.4-370.6v7.1h-1.6c0-2.4.8-4.7 1.6-7.9zm0 0c.8-2.4 1.6-3.9 2.4-5.5V499.3c0 .8-.8.8-.8 1.6zm5.5-21.2v7.9h-1.6c.8-3.2 1.6-5.6 1.6-7.9zm1.5-1.6c0 .8.8 1.6.8 1.6H666c.7 0 .7-.8 1.5-1.6zM666 863.6h.8s0-.8.8-.8h-.8c-.8 0-.8 0-.8.8zm5.5-401.2h-.8l.8-.8zm3.9-12.6v1.6h-1.6c0-.8.8-.8 1.6-1.6zm1.6-10.2c0-.8 0-.8.8-1.6 0 .8-.8.8-.8 1.6zm1.5-3.2c.8.8.8 1.6.8 1.6h-1.6c.1 0 .8-.8.8-1.6zm8.7-26.7c-.8 0-1.6 0-2.4-.8 0 0 .8 0 .8-.8.8.8.8 1.6 1.6 1.6zm3.9-20.5c0 2.4 0 4.7-.8 7.1h-1.6zm4-14.9l1.6 1.6c-.8 0-1.6-.8-2.4-.8.8-.1.8-.8.8-.8zm54.3 499.6H696.7c12.5 1.5 44 1.5 52.7 0zm-44.1-536.6h-.8l.8-.8zm3.1 73.1l-.8-.8c.8.1.8.8.8.8zm.8-87.3l-.8.8v-.8zm4-14.2h-.8v-.8zm10.2-39.3c0-1.6.8-3.9 1.6-5.5-.8 1.6-1.6 3.9-1.6 6.3l-2.4 7.1zm3.1-13.4v7.9h-1.6c.9-2.4.9-5.5 1.6-7.9zm5.5-17.3h-.8v-.8zm4-18.1v7.1h-1.6c.8-2.4.8-4.7 1.6-7.9zm2.3-7.8v7.9H736zm1.6 0h-1.6c0-2.4.8-4.7 1.6-7.9zm5.5-29.9v7.1h-1.6c.8-2.4.8-4.7 1.6-7.9zm0 0c.8-3.1 1.6-5.5 2.4-7.9v7.9zm30.7-74.8c2.4-3.1 2.4-3.1 1.6-7.1-.8 3.2-.8 4.8-1.6 7.1zm1.6 32.3v.8zm.8 3.1c0-.8-.8-1.6-.8-2.4h2.4zm11-70c.8 0 .8.8.8.8v1.6h-.8zm243.1 811.2h-11c-7.1 0-7.1 0-11.8 1.6h22.8zm51.9-4.8l-.8-.8v.8zm18.1 1.6h-.8v.8h.8zm57.5 4h-4.7v.8c.8.8 2.4.8 3.9.8 0-.9.8-.9.8-1.6z"/><path d="M1095.5 659.8c-9.4 0-18.1 6.3-26 10.2-29.9 14.9-57.4 33.8-85.8 51.1-24.4 14.9-49.6 29.1-71.6 48-4.7 3.9-10.2 7.9-14.9 11-6.3 4.7-10.2 10.2-12.6 17.3h-.8c-.8-1.6-1.6-1.6-2.4 0-2.4 3.9-4.7 8.7-5.5 13.4-.8 1.6-1.6 3.1-1.6 3.9-3.1 4.7-3.9 9.4-6.3 14.2-3.9 7.9-7.9 15.7-11 24.4-.8 2.4-2.4 5.5-2.4 8.7v.8c-.8.8-1.6 2.4-2.4 3.1-1.6 3.1-3.1 6.3-3.9 10.2 0 1.6-.8 2.4-1.6 3.9-1.6 3.1-3.9 6.3-3.9 10.2v-.8l-2.4 4.7.8-.8c-2.4 3.1-3.9 6.3-3.9 10.2h-.8c.8 4.7-2.4 7.9-3.9 11.8 0 1.6-.8 3.1-1.6 3.9l-3.9 6.3c-.8.8-1.6 2.4-2.4 3.9h.8c-2.4 2.4-1.6 4.7-2.4 7.9-.8.8-1.6 2.4-2.4 3.9h.8c-3.9 7.1-7.1 14.2-10.2 21.2-1.6 3.1-2.4 5.5-3.9 7.9-11 23.6-22 48-33.8 70.8-11 21.2-21.2 41.7-32.3 62.2-12.6 22.8-24.4 44.8-37.8 66.9-15.7 26-30.7 51.9-50.4 75.5-11.8 14.2-24.4 28.3-38.6 40.9-5.5 4.7-11.8 9.4-18.1 13.4-7.9 4.7-16.5 7.9-26 8.7-17.3 1.6-37-9.4-43.3-25.2-3.9-9.4-5.5-19.7-5.5-29.9 0-8.7.8-17.3 2.4-26 3.1-18.1 11-35.4 17.3-52.7 9.4-26.8 23.6-51.1 37.8-75.5 11-18.9 22.8-37.8 34.6-55.9 14.9-22.8 30.7-44.8 47.2-66.9 26.8-36.2 55.9-70 88.1-100.7 21.2-20.5 43.3-40.1 65.3-59.8 7.9-7.1 17.3-12.6 25.2-19.7 5.5-4.7 9.4-9.4 11.8-15.7 6.3-17.3 14.9-33.8 22-51.1 8.7-20.5 18.1-40.9 26-61.4 1.6-3.9 3.9-7.9 5.5-11.8 6.3-15.7 15.7-30.7 21.2-47.2 3.1-8.7 4.7-18.9 10.2-26.8 1.6-2.4.8-5.5-1.6-7.9l-17.3 23.6c-2.4 1.6-3.9 3.9-5.5 6.3-1.6 3.1-1.6 5.5-1.6 8.7 0 2.4.8 4.7.8 7.1s-2.4 3.1-5.5 3.1c-.8 0-1.6-1.6-3.1-2.4-1.6-.8-3.1-.8-3.9.8-7.9 15.7-22.8 25.2-32.3 39.3-.8.8-1.6 1.6-1.6 2.4-.8 0-1.6.8-2.4 1.6l-2.4 2.4c-4.7 3.9-10.2 9.4-13.4 14.9-.8 1.6-1.6 2.4-3.1 3.9-11 11-22 20.5-36.2 27.5-6.3 3.1-12.6 5.5-20.5 7.1-14.2 3.1-26.8-1.6-37.8-11.8-10.2-9.4-11.8-22-18.9-35.4-.8-1.6-.8-3.1-.8-4.7 0-11 3.1-21.2 8.7-31.5 9.4-17.3 22-32.3 38.6-44.1 21.2-14.9 45.6-20.5 71.6-18.1 10.2.8 20.5 3.1 29.1 8.7 2.4 1.6 4.7 3.9 7.9 4.7 2.4.8 3.9.8 6.3-1.6 4.7-4.7 7.9-9.4 11.8-14.2 14.2-17.3 26.8-37 40.9-54.3 6.3-7.9 11-17.3 18.9-25.2l11.8-11.8c2.4-2.4 6.3-3.1 8.7-.8 4.7 4.7 9.4 9.4 12.6 14.9 2.4 3.9 3.9 7.9 2.4 12.6-1.6 3.9-2.4 7.9-3.9 11.8-6.3 15.7-11.8 31.5-17.3 47.2-2.4 7.1-3.9 14.2-7.9 20.5-1.6 2.4-3.1 5.5-4.7 8.7v-.8c-3.9 6.3-4.7 13.4-7.9 20.5-2.4 4.7-4.7 9.4-5.5 14.9V633.4c-3.1 3.9-4.7 7.9-6.3 11.8-2.4 2.4 0 5.5-1.6 7.9s-3.1 3.9-3.9 6.3c-1.6 3.1-1.6 7.1-3.9 9.4l-2.4 6.3c-2.4 1.6-3.1 4.7-3.9 7.9-1.6 1.6-1.6 3.9-1.6 5.5-.8 1.6-1.6 3.1-2.4 3.9-1.6 3.1-3.1 6.3-3.9 9.4-1.6 3.1-3.9 6.3-3.9 10.2-.8 2.4-3.1 3.9-3.9 6.3-2.4 7.9-5.5 14.9-9.4 22.8-.8 1.6-.8 3.1-1.6 4.7 3.9 1.6 7.1 0 10.2-1.6 4.7-2.4 9.4-6.3 14.2-9.4 21.2-14.2 43.3-28.3 66.1-42.5s46.4-29.1 70.8-39.3c5.5-2.4 10.2-5.5 14.9-6.3 7.1-1.6 14.9 1.6 18.1 8.7 1.1 2.1.3 4.4-1.3 4.4zm-353.2 367.5c3.1-7.1 7.1-13.4 10.2-20.5 6.3-14.2 13.4-27.5 19.7-41.7 7.9-17.3 16.5-33.8 23.6-51.9 4.7-11.8 8.7-24.4 14.9-35.4 5.5-9.4 5.5-22.8 13.4-30.7.8-.8 0-3.1.8-3.9s0-2.4-.8-2.4h-2.4c-3.9 0-6.3 5.5-10.2 6.3-3.1 5.5-7.9 9.4-14.2 11.8l11-11.8c.8 0 1.6 0 3.1-.8 3.1-4.7 8.7-7.9 12.6-12.6 3.9-3.1 5.5-5.5 3.9-5.5-3.1 0-3.9 2.4-5.5 3.9-5.5 3.9-11 8.7-15.7 14.2-7.1 4.7-13.4 11-19.7 17.3l-1.6 2.4c-.8.8-1.6.8-2.4 1.6l-1.6 2.4c-.8.8-1.6.8-2.4 1.6l-1.6 2.4c-.8.8-1.6.8-2.4 1.6-6.3 5.5-12.6 11-18.1 18.1 0 .8-.8.8-1.6 1.6s-2.4 1.6-2.4 2.4-.8.8-1.6 1.6c-8.7 8.7-16.5 16.5-23.6 26l-2.4 1.6c-4.7 4.7-9.4 10.2-13.4 15.7-4.7 4.7-8.7 8.7-11.8 14.2-9.4 9.4-18.1 20.5-25.2 31.5-3.1 2.4-4.7 4.7-6.3 7.9-2.4 2.4-4.7 4.7-6.3 7.9-2.4 2.4-3.9 4.7-5.5 7.9-2.4 2.4-4.7 5.5-5.5 8.7-2.4.8-3.9 3.1-4.7 5.5-3.1 3.9-7.1 8.7-9.4 14.2-1.6.8-3.1 3.1-3.9 5.5-2.4 1.6-3.1 3.1-3.9 5.5-2.4 1.6-3.1 3.9-3.9 6.3-2.4 1.6-3.1 3.1-3.9 5.5-3.9 5.5-7.9 10.2-9.4 16.5-5.5 5.5-10.2 11.8-11.8 19.7-3.9 2.4-5.5 5.5-6.3 9.4-3.9 5.5-7.9 11-9.4 18.1-1.6.8-2.4 2.4-2.4 3.9-2.4 2.4-3.9 4.7-3.1 7.9 1.6-2.4 3.1-4.7 3.1-7.9 1.6-.8 2.4-2.4 2.4-3.9 4.7-4.7 7.9-11 10.2-17.3 2.4-3.1 4.7-6.3 5.5-10.2l3.9-2.4c.8-.8 1.6-2.4 1.6-3.1.8-2.4 2.4-4.7 3.9-6.3l2.4-7.9 7.9-7.9c-1.6 6.3-4.7 11-9.4 15.7-.8 2.4-2.4 4.7-3.9 6.3-.8.8-.8 2.4-2.4 3.9-1.6 6.3-3.9 11.8-7.9 17.3-5.5 7.9-10.2 16.5-14.2 25.2-3.1 7.1-7.1 14.2-11.8 20.5v-6.3c-4.7 4.7-6.3 11-7.9 17.3l6.3-7.1c0 3.1-2.4 6.3-3.1 8.7l-11.8 33.8c-5.5 17.3-11 36.2-7.9 55.1 1.6 8.7 3.9 18.1 8.7 26 4.7 7.9 7.9 8.7 15.7 3.9 9.4-5.5 17.3-12.6 25.2-20.5 24.4-24.4 42.5-53.5 60.6-82.6 3.9-6.3 7.9-13.4 11.8-20.5 11.8-20.5 22.8-40.9 34.6-62.2 14.4-26.3 27.8-52.3 39.6-79zm-192.8 180.9c1.6-1.6 1.6-4.7 1.6-7.1-.8 2.4-1.6 4.8-1.6 7.1zm1.6-7.8c3.9-3.9 4.7-9.4 6.3-14.2-4 3.9-4.7 9.4-6.3 14.2zm6.3-15c2.4-3.1 3.9-5.5 3.9-9.4 1.6-1.6 1.6-2.4 1.6-3.9-.8.8-1.6 2.4-1.6 3.9-3.1 2.3-3.9 5.5-3.9 9.4zm13.4-25.2c0 1.6-.8 2.4-1.6 3.9 0-1.5.8-3.1 1.6-3.9zm.7-6.3c3.1-4.7 5.5-9.4 7.1-14.9-4.7 3.9-7.1 8.6-7.1 14.9zm39.4-92.8c.8-.8 1.6-1.6 1.6-3.1-.8.7-1.6 2.3-1.6 3.1zm3.9-6.3c.8-.8 1.6-1.6 1.6-3.1-.8 1.5-.8 2.3-1.6 3.1zm5.5 16.5c0-1.6.8-3.1 1.6-3.9.8-1.6.8-2.4.8-3.9 1.6-.8 2.4-1.6 3.1-2.4.8-.8.8-1.6.8-3.1 1.6-.8 2.4-1.6 3.1-2.4.8-.8.8-2.4 1.6-3.1 1.6-1.6 3.1-3.9 3.1-6.3 2.4-1.6 3.1-3.9 3.9-6.3 1.6-.8 3.9-2.4 5.5-3.9-3.1 7.9-7.1 14.2-13.4 19.7-.8 2.4-1.6 4.7-3.9 5.5-.8 3.1-2.4 4.7-3.9 6.3-.7 1.5-.7 3-2.3 3.8zm19.7-53.5l3.9-1.6c-.8-.8-1.6-1.6-1.6-2.4h1.6v-1.6l-1.6 1.6c-.7 1.7-1.5 3.2-2.3 4zm3.9 18.1c.8-2.4 1.6-4.7 3.9-6.3.1 3.2-1.5 4.8-3.9 6.3zm4-6.3c0-.8 0-2.4.8-3.1 1.6-1.6 3.1-3.9 3.9-6.3 2.4-1.6 4.7-4.7 5.5-7.9 2.4-.8 3.9-2.4 5.5-3.9-3.2 8.6-7.9 15.7-15.7 21.2zm3.9-29.9c.8.8 1.6.8 1.6.8v-1.6s-.8.8-1.6.8zm3.9-3.9c1.6 0 2.4-.8 3.9-1.6.8-.8 1.6-.8 1.6-1.6h-1.6v-2.4h1.6v-1.6c0 .8-.8.8-1.6 1.6s-1.6 1.6-1.6 2.4zm2.4-3.1h1.6v1.6c-.8-.9-1.6-.9-1.6-1.6zm5.5 15.7c0-1.6.8-2.4.8-3.1 2.4-2.4 4.7-5.5 5.5-8.7 3.1-1.6 4.7-4.7 6.3-7.9 3.1-2.4 5.5-6.3 9.4-7.9-1.6 5.5-6.3 8.7-8.7 12.6s-7.1 7.1-9.4 11.8c-.8 1.6-2.3 2.4-3.9 3.2zm0-24.4c.8 0 1.6.8 1.6.8v-2.4c0 .8-.8 1.6-1.6 1.6zm2.4-1.6h1.6v-1.6c-.9.8-1.6.8-1.6 1.6zm5.5-7.8h1.6c0-.8.8-.8.8-1.6h1.6c.8-2.4.8-3.9 1.6-5.5-1.6 1.6-3.1 3.1-3.1 5.5zm7.8-10.3c.8.8 1.6.8 1.6.8 0-.8.8-1.6.8-2.4h1.6v-1.6l-1.6 1.6c-.8.8-1.6 1.6-2.4 1.6zm4-3.9c2.4 0 4.7-1.6 5.5-3.1h.8c0-.8.8-1.6 1.6-2.4s1.6-.8 1.6-1.6h-1.6v-1.6c.8 0 1.6.8 2.4 1.6 1.6-3.1 3.9-5.5 5.5-7.9.8-.8 1.6-1.6 1.6-2.4H699v-1.6h2.4v1.6l1.6-1.6h-1.6V939h1.6v1.6c.8 0 1.6-.8 1.6-1.6H703v-1.6c.8 0 1.6.8 2.4 1.6l5.5-7.9c.8-.8 1.6-.8 1.6-1.6h-1.6v-2.4h2.4v1.6c.8 0 .8-.8 1.6-1.6s1.6-1.6 2.4-1.6h-2.4v-2.4h2.4v-1.6l-2.4 1.6c-.8.8-.8 1.6-1.6 2.4l-2.4 1.6c-.8.8-.8 1.6-1.6 2.4-3.1 1.6-5.5 3.9-6.3 7.9l-1.6 1.6-2.4 2.4-1.6 1.6c-3.1 2.4-5.5 4.7-6.3 7.9-.8.8-1.6 1.6-1.6 2.4l-2.4 1.6c-1.5 1.6-3.1 3.9-3.8 5.5zm2.3 20.5c.8-3.9 3.1-6.3 5.5-7.9-.8 3.1-2.3 5.5-5.5 7.9zm4-23.7l-2.4-2.4h2.4zm0-2.3v-1.6h1.6v1.6zm11.8 6.3c-1.6 4.7-4.7 7.1-7.9 9.4.8-3.9 3.9-7.1 7.9-9.4zm-2.4-15.8c-.8-.8-1.6-1.6-1.6-2.4h1.6zm14.2 1.6c-2.4 6.3-7.1 10.2-11.8 14.2 0-1.6 0-2.4.8-3.9 3.9-2.4 6.2-7.9 11-10.3zm-4-17.3h1.6v1.6c-.8-.8-1.6-.8-1.6-1.6zm4-2.3v-1.6h1.6v1.6zm13.3 3.9c0 2.4-.8 3.9-1.6 4.7-3.9 3.9-7.1 8.7-11.8 11 0-.8 0-2.4.8-3.1 4.8-4 7.1-9.5 12.6-12.6zm-9.4-10.2c3.9-1.6 7.1-3.9 9.4-7.1l-1.6-2.4h1.6v1.6c.8 0 1.6-.8 2.4-1.6s.8-1.6 1.6-1.6h-1.6v-2.4h1.6v1.6c.8 0 1.6-.8 2.4-1.6s.8-1.6 1.6-1.6h-1.6v-2.4h1.6v1.6c.8 0 1.6-.8 2.4-1.6s.8-1.6 1.6-1.6h-1.6v-2.4h1.6v1.6c.8 0 1.6-.8 2.4-1.6 11.8-12.6 23.6-26 37-37 0-.8-.8-1.6-.8-1.6 0-.8.8-.8.8-.8v1.6c.8 0 1.6-.8 2.4-1.6s.8-1.6 1.6-1.6H780v1.6h-2.4c.8-.8.8-.8.8-1.6.8 0 .8 0 1.6-.8v-1.6h1.6v1.6c.8 0 1.6-.8 2.4-1.6s.8-1.6 1.6-1.6H784v1.6h-2.4c.8-.8.8-.8.8-1.6 0 0 .8 0 1.6-.8v-1.6h1.6v1.6c.8 0 1.6-.8 2.4-1.6 9.4-8.7 19.7-17.3 29.1-25.2v-.8c.8 0 1.6-.8 2.4-1.6 3.1-2.4 6.3-5.5 7.9-9.4.8 0 1.6 0 1.6-.8v-1.6l-1.6 1.6c-4.7 1.6-7.9 4.7-10.2 7.9l-2.4 2.4c-1.6.8-3.9 1.6-5.5 3.1-7.1 7.1-14.2 11.8-21.2 18.9-.8.8-1.6 2.4-2.4 3.9-.8 0-1.6.8-1.6 1.6-.8.8-1.6 1.6-2.4 1.6-.8.8-1.6 1.6-1.6 2.4-.8 0-1.6.8-2.4 1.6l-2.4 2.4c-1.6.8-3.1 1.6-4.7 3.1l-28.3 28.3c-1.6 1.6-3.1 3.9-3.9 6.3l-1.6 1.6-2.4 2.4-1.6 1.6-2.4 2.4-1.6 1.6-2.4 2.4-1.6 1.6c-3.8 2.5-6.1 5.6-7.7 9.6zm9.4-9.5V910h2.4v1.6zm18.1 0c-.8 2.4-.8 3.9-3.1 6.3-4.7 4.7-8.7 10.2-14.9 13.4.8-.8.8-2.4.8-3.1.8-.8 1.6-1.6 1.6-2.4 3.1-2.4 5.5-4.7 8.7-7.9 2.2-2.3 3.8-4.7 6.9-6.3zm-14.1-3.9v-1.6h2.4v1.6zm3.9-4v-1.6h2.4v1.6zm3.9-3.9v-1.6c.8 0 1.6.8 2.4 1.6zm11 140.1c3.9-9.4 8.7-18.9 14.9-27.5 0-1.6 0-3.9.8-5.5 3.1-3.9 3.9-8.7 7.1-12.6.8-.8.8-2.4 1.6-3.9v3.9c.8-.8 1.6-2.4 2.4-3.9l1.6-3.9c.8-1.6 1.6-2.4 2.4-3.9 1.6-3.1 3.1-6.3 3.9-9.4.8-.8 1.6-2.4 1.6-3.9 1.6-1.6 1.6-2.4 2.4-3.9.8-1.6 1.6-2.4 1.6-3.9 4.7-5.5 7.1-11 7.9-18.1 2.4-.8 2.4-2.4 2.4-3.9 3.1-3.9 5.5-8.7 5.5-13.4 1.6-1.6 2.4-2.4 2.4-3.9.8-1.6 1.6-2.4 1.6-3.9h-1.6v-5.5c.8 0 1.6-.8 2.4-.8v5.5c1.6-2.4 3.1-5.5 3.1-9.4h-1.6c.8-.8 1.6-2.4 1.6-3.9.8 1.6.8 2.4.8 3.9.8-.8 1.6-2.4 1.6-3.9.8-.8 1.6-2.4 1.6-3.9h-1.6v-5.5h2.4v5.5c1.6-3.1 3.1-6.3 3.1-9.4h-1.6c.8-1.6 1.6-3.1 1.6-3.9 0 .8 0 2.4.8 3.1 0-.8.8-2.4 1.6-3.1h-2.4v-6.3c-3.1 3.9-4.7 8.7-6.3 13.4-3.1 5.5-6.3 11.8-7.9 18.1-.8 2.4-3.1 4.7-3.9 7.1-9.4 29.1-24.4 55.9-37.8 82.6-.8 1.6-.8 3.1-1.6 4.7l-2.4 3.9c-5.5 11.8-12.6 22.8-16.5 34.6l-2.4 6.3c3-3.7 5.4-7.6 6.9-11.5zM746.2 910c.8-2.4 2.4-3.9 3.9-4.7 0 2.4-1.5 4-3.9 4.7zm15.7 138.5c-1.6 1.6-3.1 3.9-3.9 7.1-3.9 4.7-6.3 9.4-7.9 14.9 4.7-3.9 7.1-8.7 7.9-14.9 3.2-1.6 3.9-4.7 3.9-7.1zm-9.4-144.8c0-.8 0-2.4.8-3.1l1.6-1.6c.8-.8 2.4-1.6 2.4-2.4s.8-1.6 1.6-2.4c6.3-5.5 12.6-11 17.3-17.3l2.4-2.4c.8-.8 1.6-.8 2.4-1.6l1.6-2.4c.8 0 1.6-.8 2.4-1.6s.8-2.4 1.6-2.4 1.6-.8 2.4-1.6c.8 0 1.6-.8 3.1-.8-.8 2.4-2.4 4.7-3.9 6.3L758 899.8c-1.6 1.6-3.1 3.9-5.5 3.9zm125.9-305.2l-4.7-2.4c-9.4-4.7-20.5-3.1-30.7-1.6-17.3 2.4-32.3 8.7-46.4 18.9-5.5 3.9-11 8.7-14.2 14.2-.8 0-1.6 0-2.4.8-.8 0-1.6.8-1.6 1.6h-.8c-7.1 7.1-11.8 14.2-15.7 23.6v2.4c-1.6 3.9-3.1 8.7-3.9 12.6-1.6 7.9-2.4 16.5-.8 24.4s3.9 8.7 12.6 8.7c.8 0 1.6-.8 2.4-.8 7.1 0 13.4-3.9 18.9-7.9 8.7-6.3 16.5-11.8 24.4-18.9 15.7-14.2 30.7-29.1 44.1-45.6 6.3-7.9 14.2-13.4 18.1-22l1.6-3.9c.7-1.8.7-3.3-.9-4.1zm-119.6 25.2c2.4-2.4 4.7-3.9 5.5-7.1-3.1 1.6-4.7 3.9-5.5 7.1zm38.5-18.1c-11.8 5.5-22 14.2-27.5 24.4l-1.6 3.9c-2.4 1.6-3.1 3.1-3.9 5.5 1.6-1.6 3.1-3.1 3.9-5.5 1.6-.8 3.9-1.6 4.7-3.1 3.9-7.9 11.8-14.9 20.5-19.7 1.6-.8 3.1-2.4 4.7-3.9 2.4-.8 3.9-2.4 4.7-4.7-2.3.7-3.9 1.5-5.5 3.1zM769 1036.7c.8-3.1 2.4-7.1 3.9-10.2l-6.3 9.4c-1.6 2.4-2.4 4.7-2.4 7.9 2.5-1.6 4-4.7 4.8-7.1zm-3.1-422.5h2.4c3.1.8 5.5-1.6 7.9-3.9.8-.8.8-1.6 1.6-1.6h-1.6v1.6h-3.9v-1.6c1.6 0 2.4-.8 3.9-.8.8 0 1.6-.8 1.6-1.6v1.6c.8 0 1.6-.8 2.4-1.6s.8-1.6 1.6-1.6H780v-1.6c.8 0 1.6.8 1.6.8 1.6-.8 3.1-2.4 3.9-3.1.8-1.6 1.6-3.1 1.6-3.9-3.1.8-5.5 2.4-7.9 4.7-3.1 1.6-5.5 3.1-7.1 7.1-.8 0-1.6.8-1.6 1.6h1.6l-2.4 2.4-1.6 1.6v-1.6c-.7-.1-1.4.7-2.2 1.5zm2.3-2.3h1.6v-1.6c-.8.8-.8 1.6-1.6 1.6zm7.9 374.5v3.9h-2.4c.8-.8 1.6-2.4 2.4-3.9zm1.6-4v3.9h-1.6c.8-.7.8-2.3 1.6-3.9zm0-376.1c.8-.8 1.6-1.6 2.4-1.6v1.6zm2.3 376.1h-2.4c.9-.8 1.6-.8 2.4 0zm0-352.4v-1.6h1.6c-.8 0-.8.8-1.6 1.6zm5.5 335.1v3.9H784zm0-112.5V851c.8 0 1.6.8 2.4 1.6zm2.4 108.6v3.9h-2.4zm1.6 0h-1.6c.8-.8 1.6-.8 1.6 0zm2.3-96.8c.8-2.4 2.4-3.1 3.9-3.9-.7 2.3-1.5 3.1-3.9 3.9zm5.5 74.8v3.9c-.8 0-.8 0-1.6-.8 0 .8 0 .8-.8.8zm-2.3 3.9h.8c0 .8 0 .8-.8 0zm10.2-21.3v3.9c-.8 0-.8-.8-1.6-.8h-.8zm-2.4 4v-.8c.8.8.8.8 0 .8zm2.4-4c.8-1.6 1.6-3.1 2.4-3.9v3.9zm66.9-118c-3.1 3.9-5.5 7.9-5.5 13.4-2.4 3.1-3.9 6.3-5.5 9.4-7.9 15.7-14.9 33.8-22 50.4-11 26-21.2 53.5-32.3 79.5 4.7-8.7 9.4-17.3 13.4-26.8 13.4-29.9 29.1-59 39.3-90.5 2.4-7.1 6.3-13.4 7.1-22 3.9-3.9 4.7-8.7 5.5-13.4zm-59 99.9c.8-.8 1.6-2.4 2.4-3.9v3.9zm7.8-220.2l2.4-2.4v1.6c.8 0 1.6-.8 1.6-1.6h-1.6l1.6-1.6 2.4-2.4v1.6c.8 0 1.6-.8 1.6-1.6h-1.6c.8-.8 1.6-.8 1.6-1.6 0 0 .8.8.8 1.6 0-.8.8-.8 1.6-1.6s1.6-1.6 1.6-2.4h-1.6v-1.6h1.6v-2.4h2.4v1.6c.8 0 1.6-.8 1.6-1.6h-1.6v-1.6h1.6v-2.4c-.8.8-1.6.8-1.6 2.4-.8 0-1.6.8-2.4 1.6s-.8 1.6-1.6 1.6c-7.1 4.7-12.6 10.2-17.3 15.7 2.2.2 4.6-2.2 6.9-2.9zM817 825.1v1.6s-.8-.8-.8-1.6zm2.4 0H817c.8-.8.8-.8.8-1.6 0 .8.8.8 1.6 1.6zm5.5 51.1v-5.5c-1.6 3.1-3.9 5.5-3.1 9.4.7-1.5 2.3-2.3 3.1-3.9l.8 5.5c0-1.6.8-3.1 1.6-4.7-.8 0-1.6-.8-2.4-.8zm2.3-196.7h-1.6v1.6c.1-.8.9-.8 1.6-1.6zm1.6-3.9l2.4-2.4v2.4zm18.9 0l-17.3 17.3-1.6 1.6c7.9-2.4 13.4-10.3 18.9-18.9zm-18.1 137.7c0 .8.8 1.6 1.6 1.6 2.4-1.6 4.7-3.9 5.5-7.1-3.2.7-5.5 2.3-7.1 5.5zm0 48.7c.8-1.6.8-3.1 1.6-4.7-.8 1.6-1.6 3.2-1.6 4.7zm3.9-190.3v1.6c0-.8.8-.8 1.6-1.6zm5.5-6.3v-1.6h1.6v-2.4c0 .8-.8 1.6-1.6 2.4s-1.6.8-1.6 1.6h1.6v1.6c.8 0 1.6-.8 1.6-1.6zm-1.5 2.3v1.6c0-.8.8-.8 1.6-1.6zm7.8-7.9c0-.8.8-1.6 1.6-2.4.8-1.6.8-3.9 1.6-5.5-2.4 2.4-4.7 4.7-5.5 7.9-.8.8-1.6.8-1.6 1.6h1.6v1.6c.8 0 1.6-.8 1.6-1.6H843v-1.6h2.3v1.6c0-.8.8-.8 1.6-1.6zm-3.9 4v1.6c0-.8.8-.8 1.6-1.6zm5.5 216.3h1.6c0 .8-.8.8-1.6 0zm2.4-3.9s.8.8 1.6.8c-.8.8-.8 2.4-1.6 3.1zm3.1-9.4v-.8l.8.8zm10.2-199.9v-1.6h1.6c0 .8-.8 1.6-1.6 1.6zm2.4-1.5v-1.6h1.6c-.8 0-1.6.8-1.6 1.6zm11 150.2h-1.6v-.8c.8 0 1.6 0 1.6.8zm0-4.7h.8v.8c0-.8-.8-.8-.8-.8zm0 4.7l.8-.8v.8zm.8-.8v-3.1H879.2zm2.4-3.9v.8c-.8-.8-.8-.8 0-.8zm20.4-37c-.8.8-2.4.8-3.1 1.6 1.5 0 2.3-.8 3.1-1.6zm7.9-5.5c-2.4 0-3.9 1.6-5.5 3.1 2.3-.7 4.7-1.5 5.5-3.1zm6.3-3.9c-2.4 0-4.7 1.6-5.5 3.1 2.3 0 3.9-1.5 5.5-3.1zm9.4-20.5c-4.7 2.4-9.4 5.5-12.6 10.2 5.5-1.5 10.3-4.7 12.6-10.2zm-3.9 16.6c-.8 0-2.4 0-3.1 1.6 1.5-.9 2.3-.9 3.1-1.6zm-.8-47.3l-.8-.8h.8zm15 37c-2.4.8-3.9 1.6-5.5 3.9 2.3-.7 3.9-2.3 5.5-3.9zm5.5-3.9l-2.4 1.6c.8 0 1.6-.8 2.4-1.6zm14.1-21.2c-2.4 0-3.9 1.6-5.5 3.1 2.4-.8 4-1.6 5.5-3.1zm9.5 5.5c-.8.8-1.6.8-3.1 1.6 1.5-.1 2.3-.9 3.1-1.6zm18.1-11.8c-2.4 0-3.9 1.6-5.5 3.9 2.3-.8 4.7-1.6 5.5-3.9z"/><path d="M1364.6 626.8c-19.7 7.1-37.8 18.1-55.1 29.9-7.9 5.5-16.5 10.2-24.4 14.9-14.2 11-30.7 19.7-45.6 29.9-13.4 10.2-27.5 19.7-40.9 30.7-6.3 4.7-12.6 10.2-18.9 15.7h-.8c-9.4 7.1-18.9 13.4-28.3 19.7-15.7 11-32.3 20.5-48.8 29.1-9.4 4.7-18.9 7.9-29.1 8.7-12.6.8-22.8-2.4-31.5-11-11.8-12.6-15.7-27.5-12.6-45.6 3.1-21.2 11-40.9 20.5-60.6 7.9-16.5 18.1-32.3 29.1-48 1.6-2.4 3.1-4.7 3.9-7.9 3.1-7.9 8.7-14.2 15.7-18.9 4.7-3.1 8.7-7.1 11.8-11.8 9.4-10.2 20.5-18.9 31.5-27.5 5.5-3.1 11.8-6.3 17.3-8.7 9.4-3.1 17.3-2.4 24.4 4.7 11 11 11.8 20.5-1.6 34.6-10.2 11-21.2 22-33.8 30.7-12.6 7.9-24.4 15.7-39.3 18.1-3.9 0-7.1 2.4-10.2 6.3-2.4 2.4-4.7 5.5-6.3 8.7-8.7 14.9-17.3 29.9-23.6 44.8-.8 1.6-.8 3.1-1.6 4.7v2.4c-3.9 6.3-4.7 12.6-6.3 19.7-2.4 7.9-3.9 15.7-4.7 24.4-.8 4.7-.8 10.2 0 14.9.8 3.9 3.1 4.7 6.3 3.9 5.5-.8 11-3.1 15.7-5.5 11.8-5.5 22.8-11.8 33-18.9 18.9-11.8 37-24.4 55.1-36.2 28.3-18.9 55.9-37.8 84.2-55.9 22-14.2 44.1-28.3 66.9-40.9 5.5-3.1 11.8-6.3 18.1-9.4 3.9-2.4 7.1-3.9 11-5.5 4.7-.8 8.7-.8 11.8 3.1 3.2 3.3 7.9 6.4 7.1 12.7zm-240.7-.8c5.5-.8 10.2-3.1 14.2-7.1 3.9-3.1 7.9-5.5 11-8.7 5.5-4.7 10.2-10.2 15.7-15.7.8-.8.8-2.4 0-3.1-.8-.8-1.6-.8-2.4 0-7.9 3.1-15.7 7.9-20.5 14.9h-.8c0 .8-.8 1.6-1.6 1.6v.8c-6.2 4.7-11.7 10.2-15.6 17.3zm4.7 132.2c-.8 0-1.6.8-1.6 1.6 0-.8.8-.8 1.6-1.6zm.8-.8c2.4 0 3.9-.8 5.5-3.1-2.4 0-4 1.5-5.5 3.1zm3.9-166.8h2.4V589c-.8 0-1.6.8-2.4 1.6zm211.6 39.4c-2.4 0-3.9 1.6-5.5 3.9-1.6 0-3.1 0-4.7 1.6-1.6.8-3.9.8-5.5 2.4-15.7 9.4-31.5 18.1-45.6 29.1-5.5 2.4-11 5.5-15.7 9.4-3.1 2.4-7.1 3.9-10.2 6.3-14.2 9.4-28.3 18.9-40.9 29.1l-7.9 4.7c-18.1 13.4-36.2 26.8-54.3 39.3-3.1 2.4-7.1 4.7-8.7 7.9-3.1 0-4.7 1.6-6.3 3.9-2.4.8-4.7 2.4-6.3 3.9 2.4-.8 4.7-1.6 6.3-3.9 2.4 0 4.7-1.6 6.3-3.9 4.7-.8 7.9-3.9 11.8-6.3 11.8-7.9 22.8-16.5 34.6-24.4 8.7-6.3 16.5-13.4 25.2-19.7 18.1-11 34.6-22.8 51.9-35.4 5.5-2.4 10.2-5.5 14.9-10.2 1.6-.8 3.1-.8 4.7-2.4 13.4-7.9 27.5-16.5 40.9-25.2 2.4-1.6 3.9-2.4 4.7-3.9l4.7-2.4c2.5-.7 4.8-1.5 5.6-3.8zm-197.4-11.8c-3.9 3.1-8.7 5.5-12.6 9.4 3.9.8 7.1-1.6 9.4-3.9 2.4-.8 3.2-3.2 3.2-5.5zm-11.8-29.9h2.4v2.4c0-.8.8-1.6 1.6-2.4l2.4-1.6c2.4-.8 4.7-2.4 6.3-3.9 2.4-1.6 4.7-2.4 6.3-3.9 0-.8 0-1.6.8-2.4-.8-.8-.8-1.6-.8-1.6-5.5 2.4-10.2 4.7-14.2 9.4l-2.4 2.4zm0 17.3c10.2-7.1 18.9-14.2 29.1-21.2-10.3 2.3-22.1 10.9-29.1 21.2zm2.3-17.3v-1.6h1.6c.8-.8.8-1.6.8-2.4l1.6 2.4h-1.6c0 .8-.8.8-.8 1.6zm0 163.6c2.4 0 4.7-1.6 5.5-3.9-2.3.8-3.9 1.5-5.5 3.9zm3.2-143.2c-.8 0-1.6-.8-1.6-.8h.8zm4.7 23.6c-2.4 0-3.9 1.6-5.5 3.1 2.3.1 4.7-.7 5.5-3.1zm-1.6 115.7c1.6-.8 3.9-1.6 5.5-1.6.8-1.6 2.4-2.4 3.1-3.9h3.1l2.4-2.4v1.6c.8 0 1.6-.8 2.4-1.6h-2.4c.8-.8 1.6-1.6 2.4-1.6 0-.8.8-.8.8-1.6l3.1-.8c.8-.8 1.6-.8 2.4-1.6v1.6l1.6-1.6h-1.6v-.8c.8 0 1.6-.8 2.4-1.6v1.6c.8 0 .8-.8 1.6-1.6 1.6-.8 3.1-1.6 3.9-1.6l2.4-2.4h-1.6l2.4-1.6v1.6c0-.8.8-1.6 1.6-1.6 2.4-.8 4.7-2.4 6.3-3.9V721l.8.8.8-.8v-.8h.8c2.4-.8 4.7-1.6 6.3-3.9v-.8h.8v.8c0-.8.8-1.6 1.6-1.6l2.4-2.4c2.4 0 4.7-1.6 6.3-3.9.8-.8 1.6-1.6 2.4-1.6 2.4-.8 4.7-2.4 6.3-3.9l2.4-2.4c1.6-.8 2.4-1.6 3.9-1.6l2.4-2.4c.8-.8 1.6-1.6 2.4-1.6-.8-.8-1.6-.8-1.6-.8v-.8c.8 0 .8.8 1.6.8 1.6 0 2.4-.8 3.9-1.6l2.4-2.4c2.4-.8 3.9-2.4 6.3-3.1l2.4-2.4c2.4-.8 4.7-2.4 6.3-3.9.8-.8 1.6-1.6 2.4-1.6-.8-.8-1.6-.8-1.6-.8v-.8c.8 0 .8.8 1.6.8 1.6 0 2.4-.8 3.9-1.6.8-.8 1.6-1.6 2.4-1.6h-2.4c.8-.8.8-1.6.8-2.4.8.8.8 1.6 1.6 1.6 1.6-.8 3.1-2.4 3.9-3.9h2.4c2.4-.8 3.9-2.4 6.3-3.1l2.4-2.4c1.6-1.6 3.1-2.4 3.9-3.9.8-.8.8-.8.8-1.6l1.6 1.6c1.6-1.6 3.1-2.4 4.7-3.9v-1.6c.8.8 1.6.8 1.6 1.6 2.4-1.6 4.7-3.1 7.1-3.9h-.8c2.4-1.6 4.7-3.1 7.1-3.9h-.8c2.4-1.6 4.7-2.4 6.3-3.9l7.1-3.9c1.6-1.6 3.9-2.4 6.3-3.9 1.6-1.6 3.1-2.4 3.9-3.9.8-.8.8-.8.8-1.6l1.6 1.6c1.6-1.6 3.1-2.4 4.7-3.9-.8-.8-.8-1.6-.8-2.4-1.6.8-3.9 1.6-5.5 3.9-3.1.8-4.7 1.6-7.1 3.9-2.4.8-4.7 1.6-5.5 3.9-3.1.8-5.5 1.6-7.1 3.9-7.1 3.1-13.4 6.3-18.9 11.8-2.4.8-4.7 1.6-6.3 3.9-3.1.8-4.7 1.6-7.1 3.9-5.5 2.4-10.2 5.5-14.9 10.2-2.4 0-3.9 1.6-6.3 3.9-3.1.8-6.3 3.1-8.7 5.5-5.5 2.4-10.2 5.5-14.9 10.2-3.1.8-6.3 3.1-8.7 5.5-3.1.8-6.3 3.1-8.7 5.5-3.1 1.6-6.3 3.1-8.7 6.3-5.5 3.1-11.8 7.1-17.3 11.8-3.9 1.6-7.1 4.7-11 7.9-3.1 1.6-5.5 3.1-7.9 5.5-3.1 1.6-6.3 3.9-8.7 6.3-3.5 2-6.6 3.6-8.2 6.8zm16.5-127.5c-.8 0-1.6.8-1.6.8-3.9 2.4-7.9 4.7-11 8.7-.8.8-.8 1.6-1.6 1.6.8 0 1.6-.8 1.6-1.6 4.7-.8 8.7-3.9 11-7.9.8-.8 1.6-.8 1.6-1.6zm4.8-3.9c-.8 0-1.6.8-1.6 1.6.8-.8 1.6-.8 1.6-1.6zm4.7 114.1c0 .8.8 1.6.8 1.6h-1.6c0-.1.8-.9.8-1.6zm9.4-6.3v2.4h-1.6c.8-.9 1.6-1.6 1.6-2.4zm17.3-11.1v1.6c-.8-.8-.8-.8-1.6-.8.8 0 .8-.8 1.6-.8zm.8-1.5c.8 0 .8.8 1.6.8-.8 0-.8 0-1.6-.8zm7.9-3.2V707c.8.8.8.8 0 1.6zm2.3-1.5c-.8-.8-1.6-.8-1.6-.8v-.8c.8 0 .8.8 1.6 1.6zm7.1-7.9l1.6 1.6h-2.4c.8 0 .8-.8.8-1.6zm7.9-3.9v1.6h-2.4zm15.7-11.8l1.6 1.6h-2.4c.8-.9.8-.9.8-1.6zm29.9-19.7l1.6 1.6h-2.4c.8-.8.8-.8.8-1.6zm57.5-36.2c1.6 0 3.1 0 3.9-1.6zm4.7-1.6c.8 0 2.4-.8 3.1-1.6-.8 0-2.3 0-3.1 1.6zm3.9-2.3h1.6l.8-.8c0-.8-.8-.8-1.6-.8 0 .8-.8 1.6-.8 1.6zm14.2 4.7c-.8 0-2.4 0-3.1 1.6.7-.8 2.3-1.6 3.1-1.6z"/><path d="M1651.8 634.7h3.9c-.8 1.6-2.4 3.1-3.9 3.9-3.1 2.4-6.3 3.9-10.2 6.3-15.7 7.1-30.7 16.5-45.6 25.2l-10.2 5.5c-14.9 9.4-30.7 18.1-45.6 27.5-9.4 5.5-18.1 10.2-27.5 14.9-5.5 1.6-10.2 3.9-15.7 4.7-12.6 3.1-22.8 0-30.7-10.2-2.4-3.1-4.7-5.5-6.3-8.7-3.9-6.3-6.3-11.8-3.9-19.7 2.4-9.4 5.5-18.9 10.2-27.5l4.7-12.6c.8-2.4-.8-3.9-3.9-3.1-2.4.8-5.5 1.6-8.7 3.1-11.8 5.5-23.6 11.8-35.4 18.1-6.3 4.7-12.6 8.7-18.1 11.8-1.6.8-3.1 2.4-3.9 3.1-3.9 2.4-7.9 5.5-11.8 8.7h.8c-12.6 10.2-25.2 20.5-38.6 29.9-4.7 3.9-9.4 7.1-15.7 8.7-7.1 3.9-22 .8-26-6.3l-3.9-4.7c-5.5-5.5-7.1-11-4.7-18.1 2.4-10.2 7.1-20.5 11.8-29.1 4.7-7.9 8.7-14.9 12.6-22.8 10.2-17.3 22-34.6 34.6-51.1 9.4-12.6 20.5-25.2 31.5-37.8 4.7-4.7 10.2-9.4 15.7-14.2 2.4-1.6 3.9-2.4 6.3.8.8 1.6 3.9 0 3.9 3.1 0 2.4.8 4.7-.8 7.9l-4.7 6.3c-11 16.5-22 31.5-33 48-2.4 3.1-3.9 6.3-4.7 9.4-7.9 9.4-14.2 19.7-19.7 30.7 0 .8 0 1.6-.8 3.1-.8 1.6-1.6 1.6-2.4 3.1v2.4c-.8 1.6-2.4 3.1-3.1 4.7-1.6 1.6-2.4 3.1-1.6 5.5-1.6 1.6-2.4 3.1-3.1 4.7-3.9 1.6-4.7 4.7-3.9 8.7.8 1.6 2.4 2.4 3.9 1.6 3.1-1.6 5.5-4.7 9.4-7.1 17.3-14.9 35.4-28.3 55.9-39.3 11.8-6.3 24.4-13.4 37.8-18.1 4.7-2.4 10.2-4.7 14.9-5.5 10.2-3.1 18.1-.8 26 5.5 4.7 4.7 10.2 10.2 13.4 15.7 2.4 5.5 3.1 10.2 1.6 15.7-.8 8.7-3.9 16.5-7.1 24.4-2.4 5.5-3.9 11.8-7.1 18.1 0 .8 0 1.6.8 2.4h3.1c2.4-.8 4.7-2.4 7.1-3.1 11.8-6.3 23.6-11.8 33.8-17.3 20.5-10.2 40.9-19.7 59.8-30.7 7.9-3.9 16.5-7.1 23.6-10.2 3.9-2.4 7.9-3.9 11-5.5s5.5-2.4 7.9-3.9c7.9-3.1 14.2 0 18.9 5.5 1.6.8 1.6 2.4.8 3.9-1.1.8-3.4 1.6-3.4 4zm-308.5 59.8c3.9-1.6 6.3-3.9 8.7-7.1h2.4c.8 0 .8.8.8 1.6 0-.8.8-1.6 1.6-1.6l1.6-1.6h-1.6l1.6-2.4c0 .8 0 1.6.8 2.4 0-.8 1.6-1.6 2.4-2.4h-3.1c.8-1.6 3.1-2.4 5.5-3.1v1.6c.8 0 .8-.8.8-1.6h-.8c.8-.8.8-1.6.8-1.6.8-.8 1.6-1.6 2.4-1.6v1.6h-1.6v1.6c0-.8.8-.8 1.6-1.6 2.4-.8 3.1-1.6 4.7-3.1h-3.1c.8-2.4 3.1-3.9 5.5-3.9v1.6c.8-.8.8-1.6.8-1.6h-.8c.8 0 .8-.8 1.6-1.6.8-1.6 2.4-3.1 3.9-3.9.8-.8 1.6-.8 3.1-1.6 1.6-1.6 2.4-3.1 4.7-3.1v1.6l1.6-1.6h-1.6c.8 0 1.6-.8 1.6-1.6l2.4-3.1h3.1c.8-.8.8-2.4 1.6-3.9 2.4 0 3.9-1.6 4.7-3.1 2.4 0 3.9-1.6 4.7-3.1-1.6 0-3.1.8-4.7 3.1-1.6 0-3.9 1.6-5.5 3.1-1.6 0-3.9 1.6-5.5 3.1-3.9 1.6-7.9 5.5-11 8.7-10.2 6.3-19.7 13.4-27.5 22-3.1 1.6-6.3 3.9-7.9 7.1l-2.4 2.4c.6-.9 1.4-1.7 2.1-1.7zm76.4-37.8c-3.9 0-6.3 1.6-8.7 4.7-1.6 0-3.9.8-5.5 2.4-18.1 11-33.8 25.2-50.4 38.6-.8.8-.8 2.4-1.6 3.9-2.4 0-3.9 1.6-4.7 2.4 1.6 0 3.1-.8 4.7-2.4 4.7-1.6 7.9-5.5 11-8.7 14.9-11 29.1-23.6 44.8-33.8l1.6-2.4c4 0 6.4-2.3 8.8-4.7zm-65.3 30.7c.8-.8 1.6-.8 2.4-1.6v1.6zm35.4-27.6v1.6l2.4-1.6zm158.1 30.7c-2.4.8-3.9 1.6-4.7 3.1 1.6-.7 3.1-1.5 4.7-3.1zm7.9-4.7c-1.6.8-3.1 1.6-4.7 3.1-.8.8-2.4.8-2.4 1.6l2.4-1.6c2.3-.7 3.9-1.5 4.7-3.1zm3.1-2.3c0 .8-1.6 1.6-2.4 1.6 1.6-.1 2.4-.1 2.4-1.6zm9.5-4.8c-2.4.8-3.9 1.6-4.7 3.1 1.5-.7 3.9-.7 4.7-3.1zm3.1-1.5c-1.6 0-2.4.8-2.4.8s1.6-.1 2.4-.8zm3.2-17.4l-2.4 1.6c.8 0 1.6 0 2.4-1.6zm0 15.8c-.8 0-1.6.8-2.4 1.6zm8.6-5.5c-3.1 1.6-6.3 1.6-7.9 5.5 3.2-1.6 5.6-3.2 7.9-5.5zm3.9-1.6c-1.6 0-3.1.8-3.1 1.6.8 0 1.6-.8 3.1-1.6zm2.4-1.6s-1.6 0-2.4.8c1.6 0 2.4-.8 2.4-.8zm9.5-5.5c-.8.8-2.4.8-3.1 1.6 1.5 0 2.3-.8 3.1-1.6zm3.1-.8c-.8 0-2.4 0-2.4.8 0 0 1.6-.8 2.4-.8zm15.7-9.4c-1.6 0-2.4.8-3.1 1.6-3.9.8-6.3 2.4-8.7 5.5 3.1-1.6 6.3-1.6 8.7-5.5.8-.8 1.6-.8 3.1-1.6zm15-8.7c-.8 0-.8.8-1.6.8l-.8.8c0 .8.8.8 1.6 0 0-.8 0-.8.8-1.6z"/><path d="M2038.9 139.8c-1.6 4.7-3.9 8.7-6.3 12.6v.8h-2.4v1.6c-3.9 3.9-7.1 8.7-10.2 14.2-1.6 3.1-3.1 6.3-5.5 9.4h.8c-.8 1.6-2.4 2.4-2.4 3.9-1.6 5.5-4.7 9.4-8.7 14.2-1.6.8-2.4 3.1-3.1 5.5v2.4c-3.1 2.4-5.5 4.7-6.3 8.7-2.4 7.1-7.1 12.6-11 18.9 0 .8.8.8.8 1.6h-.8c-.8 2.4-1.6 3.9-3.1 5.5-7.1 8.7-11.8 18.9-16.5 28.3-.8 0-.8.8-.8 1.6-2.4 3.1-3.9 6.3-4.7 10.2-3.9 3.1-5.5 8.7-6.3 13.4l-2.4 2.4c-.8.8-1.6 2.4-1.6 3.9 0 .8 0 1.6.8 1.6h-.8c-.8 1.6-2.4 3.1-3.1 3.9-4.7 4.7-6.3 10.2-9.4 15.7-3.9 7.9-8.7 14.9-11 23.6-7.1 8.7-11.8 19.7-15.7 29.9h.8c-.8 1.6-1.6 2.4-1.6 3.9-.8 1.6-1.6 2.4-1.6 3.9-2.4 1.6-3.1 3.1-3.9 5.5-2.4 3.1-3.9 6.3-4.7 10.2-1.6.8-1.6 2.4-1.6 3.9-3.9 3.9-5.5 8.7-7.1 13.4-4.7 5.5-5.5 12.6-8.7 18.9 0 .8-.8 1.6-.8 3.1-3.1 2.4-4.7 6.3-5.5 10.2v-.8c0 1.6-.8 3.1-1.6 4.7v-.8c-.8 1.6-1.6 3.1-1.6 3.9-4.7 7.9-9.4 16.5-11.8 26-.8.8-.8 2.4-1.6 3.9-1.6 1.6-2.4 3.9-3.1 6.3-5.5 10.2-9.4 20.5-13.4 31.5-3.1 4.7-4.7 10.2-6.3 15.7 0 .8-.8 2.4-1.6 3.9-.8 2.4-2.4 4.7-3.1 7.9-6.3 14.9-13.4 30.7-17.3 47.2l-1.6 3.9c-.8 1.6-.8 3.9-1.6 5.5-3.1 5.5-6.3 11-6.3 17.3-2.4 4.7-4.7 9.4-4.7 14.2-.8 1.6-1.6 2.4-1.6 3.9-2.4 3.9-3.9 8.7-4.7 13.4-1.6 3.1-3.1 6.3-3.1 10.2-.8 1.6-1.6 3.9-1.6 6.3-1.6 3.1-3.1 6.3-3.1 10.2v-.8c0 1.6-.8 3.1-1.6 3.9-2.4 2.4-2.4 5.5-3.1 7.9-3.9 11.8-7.9 24.4-11 36.2-1.6 4.7-2.4 8.7-2.4 13.4-4.7 11-7.9 22.8-8.7 35.4-2.4 4.7-3.1 10.2-2.4 15.7h-.8c4.7 3.1 4.7 3.1 7.1 1.6 2.4-1.6 4.7-3.9 7.1-6.3 13.4-15.7 26.8-30.7 40.9-46.4l37-40.1c13.4-14.9 27.5-29.9 40.9-44.1 14.2-13.4 26.8-28.3 40.9-40.9l2.4-2.4c4.7-4.7 6.3-4.7 12.6 0 4.7 3.1 4.7 5.5.8 9.4-4.7 4.7-9.4 9.4-14.2 14.9-1.6 1.6-3.9 3.9-6.3 4.7-.8-.8-.8-1.6-.8-1.6-.8 0-.8.8-1.6 1.6s-1.6 1.6-1.6 2.4c-.8 0-1.6.8-2.4 1.6 0 .8-.8 1.6-1.6 1.6-1.6 1.6-3.1 2.4-4.7 3.1-11.8 13.4-23.6 26.8-36.2 39.3-.8 1.6-2.4 3.1-2.4 5.5-.8 0-1.6.8-1.6 1.6-.8 0-1.6.8-1.6 1.6l1.6-1.6c.8-.8.8-1.6 1.6-1.6 3.1-1.6 5.5-4.7 7.9-7.1 2.4-3.1 4.7-6.3 8.7-8.7-.8 3.1-3.1 5.5-4.7 7.1l-41.7 48.8c-8.7 10.2-16.5 21.2-25.2 30.7-12.6 15.7-26 30.7-40.9 44.8-3.1 3.1-7.1 5.5-11 7.9-7.9 4.7-16.5 3.9-24.4-1.6-1.6-1.6-2.4-2.4-3.9-3.1-6.3-3.9-9.4-10.2-10.2-18.1-.8-7.1 0-14.2.8-21.2 3.9-28.3 12.6-55.1 19.7-81.8 2.4-9.4 5.5-18.9 7.9-29.1.8-1.6.8-3.9 1.6-6.3 0-1.6 0-3.1-1.6-3.1-3.9-1.6-3.9-3.9-4.7-7.1 0-3.9 0-7.1-.8-11 0-2.4-2.4-3.1-4.7-2.4l-1.6 1.6v-1.6c-.8.8-1.6 1.6-2.4 1.6-.8 2.4-1.6 3.9-3.1 6.3-.8.8-.8 1.6-1.6 1.6-.8.8-1.6 1.6-1.6 2.4h1.6l-1.6 1.6v.8c-18.9 25.2-40.9 47.2-68.4 62.9-6.3 3.9-12.6 6.3-20.5 7.9-4.7 1.6-10.2 1.6-14.9-.8-11-3.9-18.9-11-23.6-21.2-2.4-3.1-2.4-7.1-2.4-11 0-7.1 1.6-14.2 3.9-20.5 3.1-6.3 5.5-12.6 9.4-18.9 9.4-14.2 20.5-27.5 34.6-37.8 14.9-11 31.5-17.3 50.4-15.7 5.5 0 11 1.6 16.5 3.1 6.3 1.6 7.1 1.6 11-3.1 5.5-10.2 11.8-19.7 17.3-29.1 14.9-25.2 29.9-50.4 44.1-75.5 11.8-19.7 22-40.1 33-60.6l17.3-30.7c2.4-4.7 5.5-10.2 8.7-15.7 2.4-5.5 5.5-10.2 8.7-15.7 11.8-20.5 23.6-41.7 34.6-62.9l33.8-56.6c9.4-17.3 19.7-33.8 30.7-50.4l47.2-70c2.4-3.9 5.5-7.1 8.7-10.2 3.1-3.9 7.1-3.9 11-.8 3.9 4.7 9.4 8.7 12.6 14.9 1.5 3.2 2.3 6.3 0 8.7zm-342.3 503.5c4.7-7.1 10.2-14.2 15.7-21.2 2.4-2.4 3.9-6.3 5.5-9.4.8-1.6 0-3.1-1.6-3.9h-3.9c-8.7 0-15.7 2.4-22.8 5.5-7.9 3.9-14.9 8.7-22 14.2-2.4 2.4-4.7 4.7-8.7 5.5 1.6-4.7 5.5-6.3 7.1-9.4 2.4-1.6 4.7-2.4 5.5-4.7-3.1 0-4.7 1.6-6.3 3.9-10.2 6.3-18.1 14.2-22.8 25.2-3.1 1.6-4.7 4.7-4.7 7.9 2.4-1.6 3.9-3.9 4.7-7.1 3.1-1.6 4.7-4.7 6.3-7.1 3.1-2.4 4.7-5.5 8.7-7.1 0 3.1-2.4 5.5-4.7 7.9-7.1 7.1-11.8 15.7-16.5 24.4-3.9 7.9-5.5 17.3-6.3 26.8 0 3.9 2.4 5.5 5.5 3.9 6.3-2.4 11.8-5.5 16.5-9.4 16.5-13.6 31.4-28.6 44.8-45.9zm-62.9-3.9h1.6v-1.6c-.9 0-.9.8-1.6 1.6zm0 22.8c2.4-.8 3.1-2.4 3.1-4.7-1.6.8-2.4 3.1-3.1 4.7zm1.5-25.2h2.4s-.8-.8-.8-1.6c0 .8-.8 1.6-1.6 1.6zm2.4-1.5h1.6v1.6c.8 0 1.6-.8 1.6-1.6h-1.6v-1.6c-.8 0-1.6.8-1.6 1.6zm0 2.3v1.6c.8-.8.8-1.6 1.6-1.6zm1.6-4.7h1.6v-1.6h1.6v-1.6l-1.6 1.6c-.8.8-.8 1.6-1.6 1.6zm1.5.8s.8.8.8 1.6c0-.8.8-1.6 1.6-1.6zm1.6-4.7l2.4 2.4h-1.6v1.6l1.6-1.6c4.7-3.9 9.4-7.9 11-13.4.8-.8.8-1.6.8-2.4 0 .8-.8.8-1.6 1.6-5.5 2.3-9.4 6.3-12.6 11.8zm15-13.4c1.6 0 3.1 0 3.1-1.6-.8 0-2.3 0-3.1 1.6zm37.7 51.1l1.6-1.6h-1.6l1.6-2.4v1.6c.8 0 1.6-.8 1.6-1.6h-1.6l2.4-2.4 1.6-1.6v1.6c.8-.8 1.6-.8 1.6-1.6 3.1-2.4 6.3-5.5 7.1-9.4 0-.8-.8-.8-.8-.8h-.8c.8 0 .8-.8 1.6-1.6v1.6c.8 0 1.6-.8 1.6-1.6h-1.6c.8-.8.8-1.6 1.6-1.6 0 0 0 .8.8 1.6.8 0 .8-.8 1.6-1.6h-2.4c.8-.8 1.6-1.6 1.6-2.4.8-.8.8-2.4.8-3.1.8 0 .8-.8 1.6-.8v3.9h-1.6v1.6c.8 0 .8-.8 1.6-1.6 2.4-1.6 3.1-3.1 3.1-5.5h-1.6c-.8 0-1.6.8-1.6 1.6v-1.6c.8 0 .8 0 1.6-.8.8 0 .8-.8 1.6-1.6v1.6c.8-.8 1.6-.8 1.6-1.6h-1.6c.8-.8 1.6-1.6 1.6-2.4.8-.8.8-2.4.8-3.1 0-.8.8-1.6.8-2.4h2.4v3.9c1.6-1.6 3.1-3.9 3.1-5.5h-1.6c.8-.8 1.6-1.6 1.6-2.4.8.8.8.8.8 1.6.8 0 .8-.8 1.6-1.6h-2.4v-3.9c-3.1 2.4-4.7 4.7-5.5 7.9-.8 0-1.6.8-1.6 1.6-3.1 2.4-4.7 4.7-5.5 7.9l-2.4 1.6c-3.9 3.9-7.1 8.7-10.2 14.2-6.3 6.3-12.6 12.6-17.3 19.7 3.1 0 4.7-2.4 7.1-3.1l2.4-2.4v1.6c.5.1.5-.7 1.3-1.5zm-.8 18.1c-1.6.8-3.1 1.6-4.7 3.1 2.4.1 3.2-1.5 4.7-3.1zm.8-19.6v1.6h-1.6c.1-.9.8-1.6 1.6-1.6zm48-40.2h-1.6c-1.6 1.6-2.4 2.4-3.1 3.9-10.2 14.2-21.2 28.3-33 41.7-1.6 1.6-2.4 3.9-3.9 5.5-.8.8-.8 1.6-1.6 1.6-1.6 1.6-3.1 2.4-3.1 4.7 1.6-.8 3.1-1.6 3.9-3.1.8-.8 1.6-1.6 1.6-2.4 3.1-1.6 5.5-3.9 7.1-6.3 12.6-12.6 22.8-26.8 33-41.7.8-.8.8-.8.8-1.6.7-.7.7-1.5-.1-2.3zm-44 36.2v1.6c0-.8.8-1.6 1.6-1.6zm21.2-27.5v1.6c0-.8.8-1.6 1.6-1.6zm7.9-16.5h2.4l1.6-1.6c-2.5-1.6-3.2-1.6-4 1.6zm10.2 28.3l-1.6 1.6v-1.6zm4.7-8.7h.8v.8h-2.4v-.8zm15.8-34.6c7.9-8.7 12.6-18.9 18.9-28.3.8-1.6.8-3.1.8-5.5-7.1 8.7-12.6 18.9-18.9 29.1-.8.8-.8 2.4-1.6 3.9-3.9 3.1-5.5 7.1-7.9 11v1.6c.8.8 1.6 0 1.6 0 3.9-3.1 6.3-7.1 7.1-11.8zm24.3-27.5c-5.5 4.7-9.4 11.8-11.8 18.9-5.5 3.9-7.9 10.2-11 16.5-6.3 5.5-7.1 11.8-3.1 19.7 1.6 3.9 1.6 7.1 2.4 11 0 .8 0 2.4 2.4 3.1 0-.8.8-1.6 1.6-3.1 5.5-15.7 10.2-31.5 15.7-48 .8-.8.8-2.4.8-3.1 0-1.6-.8-2.4-1.6-3.9zm-20.4 35.4h-2.4c.8-.8 1.6-.8 2.4 0zm2.4 114.1c-2.4 2.4-2.4 5.5-3.1 8.7 2.3-2.4 3.8-4.8 3.1-8.7zm7.8-26.8v.8c.8-.8.8-.8 0-.8zm15-142.4c-2.4.8-3.1 3.1-3.1 4.7 1.5-.8 2.3-3.1 3.1-4.7zm0 94.4c-2.4 2.4-2.4 5.5-3.1 8.7 2.3-2.4 3.1-5.5 3.1-8.7zm7.8-23.6c-.8 1.6-.8 3.1-1.6 4.7 1.6-1.5 1.6-3.1 1.6-4.7zm6.3-17.3c-.8.8-.8 1.6-1.6 2.4 0 .8 0 .8.8.8h.8zm4.8-14.2c-2.4 2.4-2.4 5.5-3.1 8.7 1.5-2.4 3.1-5.5 3.1-8.7zm7.8-22c-1.6 2.4-3.1 4.7-2.4 8.7 2.4-3.2 2.4-5.5 2.4-8.7zm-1.6 27.6v-3.9c0 .8 0 2.4.8 3.9zm0 149.4c7.9-6.3 14.2-14.9 21.2-22.8.8-1.6.8-3.1 1.6-3.9-7.9 6.3-14.2 14.2-20.5 22-1.5 1.6-1.5 3.2-2.3 4.7zm22.1-9.4c-.8 0-.8.8-1.6 1.6l-1.6 2.4c-6.3 4.7-12.6 12.6-15.7 18.9 6.3-5.5 11.8-11 15.7-18.9.8-.8 1.6-.8 1.6-2.4.8 0 1.6-.8 1.6-1.6zm-17.3-175.5c0 1.6-.8 2.4-.8 3.1.8-.7.8-1.5.8-3.1zm13.3-32.2c-.8-.8-.8 0-1.6.8v.8s.8 0 .8-.8c.1 0 .8 0 .8-.8zm4.8 7.9c0-.8 0-2.4-.8-3.1H1837.5c-.9.7-.9 2.3-1.6 3.1zm1.5-24.4c-.8.8-1.6 1.6-1.6 3.1.8-.8 1.6-2.3 1.6-3.1zm-.8 221.8c0 .8-.8.8-.8 1.6.1 0 .8-.8.8-1.6zm.8 0c8.7-7.1 15.7-15.7 22-25.2 0-.8.8-.8 1.6-1.6l1.6-2.4c.8-.8 1.6-1.6 1.6-2.4.8 0 1.6-.8 1.6-1.6.8-.8 1.6-1.6 1.6-2.4.8-.8 1.6-.8 1.6-1.6-.8 0-.8.8-1.6 1.6-.8 0-1.6.8-1.6 1.6l-2.4 2.4c0 .8-.8.8-1.6 1.6l-1.6 2.4c-.8.8-1.6.8-1.6 1.6-7.9 7.1-14.2 14.9-20.5 23.6-.7.9-.7 1.7-.7 2.4zm4.8-233.6c-1.6 2.4-2.4 4.7-3.1 6.3 2.3-.8 3.8-2.4 3.1-6.3zm3.1 207.7c.8 0 .8-.8.8-.8zm3.2-4c6.3-2.4 10.2-7.1 12.6-13.4-5.6 4-9.5 7.9-12.6 13.4zm5.5-229.7c-2.4 1.6-3.9 3.1-3.1 7.1 2.3-2.4 3.1-4.7 3.1-7.1zm3.1-7.9c-.8.8-.8 1.6-1.6 3.1.8-.7.8-2.3 1.6-3.1zm1.6-3.9l-1.6 2.4c.8-.8 1.6-1.6 1.6-2.4zm1.6-1.6c0-.8 0-.8-.8-1.6v.8c-.8.8-.8.8-.8 1.6.8 0 .8-.8 1.6-.8zm4.7 225.8c7.1-3.9 12.6-9.4 15.7-17.3-6.3 4.7-11.8 10.3-15.7 17.3zm10.2-259.6c-.8.8-1.6 2.4-1.6 3.9-2.4 2.4-3.9 5.5-4.7 8.7 2.4-1.6 3.9-5.5 4.7-8.7.8-1.5 1.6-2.3 1.6-3.9zm3.9-5.5c-2.4.8-3.1 2.4-3.9 4.7 2.4-.8 3.1-3.1 3.9-4.7zm6.3-16.5c-.8 1.6-1.6 2.4-1.6 3.9.8-.8 1.6-2.4 1.6-3.9zm5.5 269.8c0 .8-.8 1.6-1.6 2.4v-.8c.9 0 .9-.8 1.6-1.6zm.8-281.6c0-.8-.8-.8-.8 0s-.8.8-.8 1.6c.8-.8.8-.8 1.6-.8zm0 263.5c3.9-.8 6.3-3.1 9.4-6.3 2.4-3.1 5.5-7.1 7.9-11-7 4.7-11.8 11-17.3 17.3zm15 .8c-3.1 7.1-7.9 13.4-14.9 17.3 3.9-7 9.4-12.6 14.9-17.3zm-8.7-278.5s-.8.8-.8 1.6c0-.8.8-.8.8-.8zm9.5 277.7l1.6-1.6c-.8.8-.8 1.6-1.6 2.4h-.8c.8 0 .8 0 .8-.8zm8.6-11h1.6c-1.6 3.9-3.9 7.1-8.7 9.4zm1.6-2.3h2.4l-1.6 1.6s0-.9-.8-1.6zm0 1.5h.8v.8h-.8zm2.3-1.5v-1.6h1.6c-.8 0-.8.8-1.6 1.6zm1.6-2.4v-1.6h1.6c0 .8-.8 1.6-1.6 1.6zm3.2-18.1c5.5-3.1 5.5-3.1 8.7-9.4-4 3.1-6.4 6.3-8.7 9.4zm27.5-332h-2.4c.8-.8 1.6-.8 2.4 0zm-.8-.8c0-.8 0-.8.8-1.6v2.4c0-.8-.8-.8-.8-.8z"/><path d="M2139.5 617.4c-1.6 1.6-2.4-.8-4.7-.8-.8 0-.8 0-1.6-.8-6.3-6.3-11-7.9-17.3-5.5-4.7 1.6-8.7 2.4-12.6 3.9-12.6 4.7-24.4 11-36.2 16.5-6.3 3.1-11.8 7.1-17.3 11-2.4 1.6-5.5 3.1-8.7 4.7-1.6.8-3.9.8-4.7 3.1-.8 3.1-5.5 4.7-8.7 7.1l-1.6 1.6v.8c-2.4.8-4.7 2.4-7.1 3.1v.8c-.8.8-1.6.8-1.6 1.6 0-.8-.8-.8-.8-1.6v-.8c-1.6.8-3.9 1.6-4.7 3.9-1.6 1.6-3.9 2.4-5.5 3.9-1.6 1.6-3.9 2.4-5.5 4.7l-1.6 1.6c-2.4.8-3.9 2.4-5.5 3.9h.8c-.8.8-1.6 1.6-1.6 2.4-1.6 0-2.4.8-3.9 1.6l-1.6 2.4c-3.1.8-5.5 3.1-7.1 5.5l-1.6 2.4c-3.9 1.6-7.1 3.9-7.9 7.9h-.8c.8.8.8.8.8 1.6-.8-.8-.8-.8-.8-1.6l-1.6 1.6c0 .8-.8 1.6-1.6 2.4-2.4.8-3.9 1.6-4.7 3.9-.8.8-1.6 1.6-2.4 1.6 0 .8-.8 1.6-1.6 2.4 0 .8-.8.8-.8 1.6-6.3 3.1-10.2 8.7-14.2 14.2h3.9c-1.6 2.4-3.9 4.7-6.3 7.9 0-1.6 0-3.1-.8-3.9-2.4 1.6-4.7 4.7-6.3 7.9-7.1 7.1-13.4 14.2-17.3 23.6l-1.6 1.6c-.8.8-1.6 1.6-1.6 2.4-.8.8-1.6.8-1.6.8-.8 1.6 0 4.7-3.1 5.5s-6.3 1.6-10.2 0c-5.5-2.4-10.2-3.9-12.6-10.2-.8-2.4-3.1-3.9-4.7-5.5-3.9-3.9-4.7-7.9-3.1-12.6 7.1-21.2 12.6-42.5 19.7-64.5 6.3-18.9 13.4-37 18.9-55.9 2.4-8.7 4.7-17.3 8.7-25.2l2.4-4.7c.8-1.6 2.4-1.6 3.9-.8 3.9 2.4 7.1 5.5 8.7 10.2 2.4 6.3 1.6 12.6.8 18.9-2.4 16.5-9.4 31.5-9.4 47.2 0 2.4-1.6 3.9-1.6 5.5s0 2.4 1.6 3.9c1.6 1.6 3.1 0 3.9-.8l7.9-7.1c12.6-12.6 26.8-21.2 40.9-31.5 11-7.9 22-13.4 33.8-20.5 14.9-8.7 30.7-16.5 47.2-24.4 10.2-4.7 22-8.7 33.8-10.2 11-1.6 20.5 1.6 29.1 10.2 4.7 4.7 9.4 9.4 12.6 14.9 1.1 1.5.3 3.1-1.3 4.7zm-224.2 151.8h-1.6c0-.8.8-.8 1.6 0zm182.5-159.7c-9.4 2.4-17.3 5.5-26 10.2-29.9 16.5-58.2 33-83.4 54.3-26.8 22-45.6 49.6-70 74-1.6 1.6-3.9 3.9-3.9 7.1v.8h.8c4.7-3.1 7.1-7.9 10.2-11.8 21.2-26 44.1-51.1 71.6-72.4 28.3-22 58.2-45.6 93.6-57.4 2.4-.9 5.6-2.4 7.1-4.8zm-182.5 157.4h1.6c0 .8-.8 1.6-1.6 2.4zm1.6 0v-1.6h1.6zm1.6-1.6c.8-.8.8-1.6 1.6-1.6-.1.8-.9.8-1.6 1.6zm2.3-3.2c0 .8-.8 1.6-.8 1.6 0-.8.8-.8.8-1.6zm1.6-.8s-.8.8-1.6.8c.8 0 .8-.8 1.6-1.6l1.6-1.6zm3.1-3.9l-1.6 1.6c0-.8.8-.8.8-1.6l1.6-1.6c0 .8 0 .8-.8 1.6zm.8-1.6l.8-.8s0 .8-.8.8zm.8-.8c0-.8.8-.8.8-1.6l2.4-2.4c-.8.8-1.6 1.6-1.6 2.4-.8.9-.8 1.6-1.6 1.6zm3.2-3.9l1.6-2.4h.8l-.8.8c-.9 0-.9.8-1.6 1.6zm7.8-55.1c2.4-.8 3.9-1.6 4.7-3.1-1.5 0-3.1 1.6-4.7 3.1zm1.6 43.3l1.6-1.6c0 .8-.8.8-1.6 1.6zm8.7-9.4h-.8c.8-.8 1.6-1.6 1.6-2.4-.1.8-.8 1.6-.8 2.4zm3.1-4l-2.4 1.6 1.6-1.6 1.6-2.4 1.6-1.6 2.4-2.4c-.8.8-1.6 1.6-1.6 2.4-.8.8-1.6.8-1.6 1.6-.8.9-1.6 1.7-1.6 2.4zm-1.6-41.7c2.4-.8 3.9-1.6 4.7-3.9-1.5.8-3.1 2.4-4.7 3.9zm6.3 35.4c0-.8.8-1.6 1.6-1.6-.8.9-1.6.9-1.6 1.6zm.8-41.7h3.9c0-.8.8-2.4.8-3.1-2.3 0-3.9 1.6-4.7 3.1zm.8 37.8h1.6c-.8.8-.8 1.6-1.6 1.6zm1.6-1.6h1.6l-1.6 1.6zm1.5-2.3h1.6l-1.6 2.4zm1.6-37.8s.8-.8 1.6-.8c.8-.8 2.4-.8 3.1-.8 0 .8.8 1.6.8 1.6 2.4 0 3.9-1.6 4.7-3.1h-3.9c.8-1.6.8-3.1 1.6-3.9h3.9v1.6l3.9-1.6h-3.9c0-1.6.8-3.1 1.6-3.9h3.9v1.6c.8-.8 2.4-1.6 3.1-1.6h-3.1c0-1.6.8-2.4 1.6-3.1.8-.8 2.4-.8 3.1-.8 0 0 .8.8.8 1.6 1.6 0 2.4-.8 3.1-1.6h-3.9c.8-1.6 1.6-2.4 2.4-3.9h3.1v1.6c1.6 0 3.1-.8 3.9-1.6 2.4-.8 3.9-2.4 4.7-3.9h-3.9c.8-.8.8-.8.8-1.6l3.1-.8c0 .8 0 1.6.8 2.4.8-.8 2.4-.8 3.1-2.4 2.4-.8 3.9-1.6 5.5-3.9 1.6 0 2.4-.8 3.1-1.6 3.9-1.6 7.1-3.1 8.7-6.3v-1.6c0 .8 0 .8.8 1.6.8 0 2.4-.8 3.1-1.6 1.6-.8 3.1-.8 3.1-2.4h-3.1c.8-.8 2.4-.8 3.1-1.6 0 .8 0 .8.8 1.6.8 0 2.4-.8 3.1-1.6l-3.1-.8c.8 0 1.6-.8 3.1-1.6v1.6c3.9-.8 7.1-2.4 8.7-5.5l3.9-1.6c1.6-.8 2.4-.8 3.1-2.4 1.6 0 3.1-.8 3.9-1.6 2.4-.8 3.1-3.1 5.5-4.7v.8l3.1-2.4v-1.6c1.6 0 2.4 0 3.9-.8v-1.6c3.9 1.6 6.3-.8 8.7-2.4v-1.6h3.9c0-.8 0-1.6-.8-1.6s-2.4 0-3.1 1.6c-3.9 0-7.1.8-9.4 3.9-1.6 0-3.1 0-3.9 1.6-14.2 5.5-26.8 13.4-39.3 21.2-6.3 2.4-11.8 6.3-15.7 10.2-3.9.8-7.1 3.1-9.4 5.5-3.1 1.6-6.3 3.9-8.7 6.3-1.6.8-3.9 2.4-5.5 3.9-1.6.8-3.9 1.6-4.7 4.7-2.4 0-3.9 1.6-4.7 3.9-3.1.8-5.5 2.4-7.1 5.5.2 1.1-.6 1.1-.6 1.9zm0 36.2h3.1c-.8.8-1.6.8-3.1 1.6zm3.2 0l2.4-2.4c-.8.8-1.6 1.6-1.6 2.4zm1.5-3.9h2.4c-.8.8-1.6.8-1.6 1.6 0-.8-.8-.8-.8-1.6zm1.6-2.4h2.4c-.8.8-.8 1.6-1.6 2.4 0-.8 0-1.6-.8-2.4zm7.1-3.1l1.6-2.4c0 .8-.8 1.6-.8 2.4zm3.9-4.8c0-.8-.8-.8-.8-1.6h1.6c0 .9-.8.9-.8 1.6zm.8-3.9h3.9c-1.6.8-2.4 1.6-3.1 2.4 0-.8-.8-1.6-.8-2.4zm5.5-1.6c0 .8-.8.8-1.6 1.6.8-.8.8-1.6 1.6-1.6zm0 0l1.6-2.4c0 .9-.8 1.6-1.6 2.4zm1.6-3.9h1.6l-1.6 1.6zm1.6-2.4h3.9l-3.9 2.4v-.8zm0 2.4h.8zm4.7-33.8v2.4h-3.9c.7-.9 2.3-1.6 3.9-2.4zm-.8 29.9h1.6c-.8 0-.8.8-1.6 1.6zm1.6-2.4h3.1l-3.1 2.4zm3.1 0l2.4-2.4v.8c-.8.8-1.6.8-1.6 1.6zm4.7-33.8v2.4h-3.9zm-2.3 31.4s-.8-.8-.8-1.6h2.4zm7.1-34.6s.8.8.8 1.6h-3.9v-1.6zm3.9-2.3v2.4h-3.9zm.8 25.1v2.4c0-1.6-.8-1.6 0-2.4zm.8 3.2l-.8-.8s.8 0 .8.8zm10.2-36.2c.8.8.8 1.6.8 2.4-.8-.8-2.4-.8-3.1-.8v-.8c.7 0 1.5 0 2.3-.8zm52.7-29.9c3.1 0 5.5-1.6 4.7-1.6-2.3 0-3.9.8-4.7 1.6zM2341.7 608.7c0 2.4-.8 3.9-1.6 6.3 0 .8-.8 1.6-1.6 2.4-12.6 10.2-26 20.5-39.3 30.7-18.1 14.2-37 28.3-54.3 42.5-30.7 22.8-60.6 46.4-91.3 69.2-9.4 7.1-18.9 13.4-29.1 18.9-4.7 2.4-8.7 4.7-14.2 5.5-6.3.8-11 0-14.9-3.9l-3.9-2.4c-7.1-4.7-10.2-11.8-8.7-21.2 1.6-11.8 3.1-24.4 8.7-35.4 3.1-4.7 5.5-9.4 7.1-14.9 7.1-16.5 16.5-33 26-48.8 9.4-17.3 18.9-33.8 29.1-50.4 11-15.7 22-32.3 34.6-48 1.6-1.6 3.1-3.9 6.3-4.7 8.7 4.7 10.2 7.9 6.3 17.3-3.1 9.4-7.9 18.9-13.4 28.3-3.9 6.3-7.1 12.6-10.2 18.9-.8.8-1.6 2.4-1.6 3.1h1.6c-1.6 1.6-2.4 2.4-2.4 3.9-3.1 2.4-4.7 4.7-7.1 7.9-2.4 6.3-6.3 12.6-10.2 18.9-.8 2.4-1.6 4.7-3.1 7.1-.8 1.6-1.6 2.4-1.6 3.1.8.8.8.8 1.6.8h-1.6c-4.7 3.9-7.1 9.4-8.7 14.9-2.4 3.1-5.5 7.1-5.5 11.8-3.1 3.1-5.5 7.9-6.3 11.8-3.9 5.5-7.1 10.2-7.9 16.5 0 .8 0 1.6-1.6 2.4-7.1 9.4-9.4 20.5-13.4 30.7-.8 3.1-.8 6.3-.8 9.4 0 1.6 2.4 2.4 3.9 2.4 1.6-.8 3.1-1.6 3.9-2.4l14.9-9.4c7.1-4.7 13.4-10.2 20.5-14.9 16.5-12.6 33.8-25.2 50.4-37 12.6-9.4 25.2-17.3 37-26.8 18.1-13.4 37-26.8 55.1-40.9l33-23.6c3.9-3.1 7.1-3.9 11.8-1.6zm-225 113.3v.8zm3.9-8.7c1.6-1.6 1.6-3.1 2.4-4.7s.8-3.1 1.6-3.9v-.8c-.8 1.6-.8 3.1-1.6 4.7s-.8 2.4-2.4 3.9zm7.9-16.5c.8 0 .8 0 1.6-.8 0 0-.8 0-.8-.8 0 .8-.8.8-.8 1.6zm9.5-15.7c0-1.6.8-2.4.8-3.9-.1.7-.8 2.3-.8 3.9zm89.6-166c-2.4-3.9-5.5-7.1-3.9-11.8.8-3.9 2.4-7.1 3.9-10.2 7.9-13.4 18.1-26 28.3-37.8 2.4-3.1 5.5-5.5 8.7-7.9 3.1-2.4 6.3-2.4 9.4 0 2.4 2.4 4.7 3.9 7.1 5.5-2.4 3.1-3.9 5.5-6.3 7.9-3.1 1.6-5.5 3.1-7.1 7.1-1.6.8-3.9 1.6-3.9 5.5 1.6-3.1 2.4-3.9 4.7-5.5 1.6-2.4 3.9-4.7 6.3-7.1 3.1-.8 4.7-1.6 8.7-2.4-2.4 2.4-2.4 3.1-3.1 3.9-7.1 3.9-13.4 10.2-18.1 17.3-5.5 7.9-11 15.7-14.9 24.4-3.1 4.7-6.3 9.4-10.2 13.4-4 .8-7.2.8-9.6-2.3zm37-59h.8c1.6.8 3.9-.8 3.9-3.1h-.8c-1.6-.8-2.4-.8-3.1.8-.8.7-.8 1.5-.8 2.3z"/><path d="M2613.2 610.3c-3.1 14.2-10.2 25.2-16.5 37-1.6 3.1-3.9 5.5-5.5 8.7-.8 1.6-1.6 3.1-3.1 3.9-11 5.5-23.6 11.8-29.9 22 .8-.8.8-.8 1.6-.8-.8.8-.8 1.6-1.6 1.6-1.6 2.4-2.4 5.5-2.4 8.7v1.6c-3.9.8-7.1 3.9-9.4 6.3-17.3 17.3-37 29.9-58.2 37.8-16.5 6.3-33 11-50.4 11-21.2 0-40.9-5.5-55.9-20.5l-6.3-5.5c-1.6-1.6-3.1-2.4-4.7-2.4v.8h-.8c0 .8-.8.8-1.6 1.6v-1.6c-.8 0-1.6.8-1.6 1.6h1.6l-1.6 1.6v.8h-.8c-.8.8-2.4 2.4-3.1 3.9h-2.4c-1.6 1.6-2.4 3.9-3.9 5.5-.8.8-1.6 1.6-1.6 2.4h-.8c0 .8-.8.8-1.6 1.6-3.1 2.4-6.3 4.7-7.9 7.9-.8.8-1.6 1.6-1.6 2.4h1.6c-.8.8-1.6.8-1.6 1.6-.8-.8-.8-.8-.8-1.6l-1.6 1.6-2.4 2.4c0 .8-.8.8-1.6 1.6l-3.9 6.3c-.8 0-1.6.8-1.6 1.6h1.6l-2.4 2.4v-1.6l-1.6 1.6-2.4 1.6c-3.9 4.7-8.7 9.4-11 15.7v2.4h-.8v-1.6l-1.6 1.6c-2.4 1.6-3.1 3.1-3.9 5.5l-2.4 2.4c-7.1 6.3-11.8 14.9-15.7 23.6-3.1 3.1-5.5 7.1-5.5 12.6 0 2.4-1.6 4.7-2.4 7.1l-.8 5.5c0 6.3-.8 11 5.5 14.9 3.9 2.4 5.5 5.5 3.9 7.1-2.4 2.4-4.7 3.1-7.1 3.1-5.5 0-9.4-3.1-14.2-5.5-1.6-.8-2.4-2.4-3.9-3.9-11.8-11.8-14.2-24.4-7.9-40.1 3.9-10.2 7.9-20.5 14.2-29.1 11-15.7 22.8-31.5 35.4-46.4 11.8-14.2 23.6-28.3 37-41.7l1.6-2.4c3.1-3.1 3.1-6.3 1.6-10.2-3.1-7.1-7.1-14.9-9.4-22-5.5-15.7-9.4-32.3-11.8-48.8-2.4-14.9-3.9-30.7-3.9-45.6v-6.3c0-2.4 2.4-3.1 3.9-2.4 5.5 3.1 8.7 7.9 11 13.4 1.6 3.9 2.4 8.7 3.1 12.6 3.9 20.5 7.9 40.9 14.2 60.6 2.4 7.1 7.9 14.9 7.9 22 0 .8 0 1.6.8 2.4 2.4 2.4 3.9 3.1 5.5 1.6l4.7-4.7c7.9-7.9 16.5-14.9 24.4-22.8 12.6-12.6 26-24.4 40.1-35.4 10.2-7.9 20.5-17.3 31.5-22.8 6.3-3.1 11.8-7.1 18.1-11 18.9-11.8 40.1-18.9 62.2-22 18.9-2.4 35.4 2.4 48 18.1 6.3 7.9 11.8 15.7 13.4 25.2 1 3.2 1.7 7.9 1 11.9zm-247.1 106.2c.8-.8 0-1.6-.8-1.6 0 0 0-.8-.8 0l-5.5 4.7c-12.6 12.6-23.6 25.2-35.4 38.6-8.7 10.2-16.5 21.2-24.4 31.5-3.9 5.5-7.9 10.2-9.4 17.3-.8 0-.8 0-1.6.8s0 1.6 0 1.6c.8 0 .8-.8.8-.8 0-.8.8-.8.8-1.6 2.4-1.6 3.1-3.1 4.7-4.7 15.7-15.7 26-36.2 40.9-52.7 7.9-8.7 14.9-16.5 23.6-25.2zm-74 60.6c1.6-1.6 2.4-3.1 3.1-5.5-1.5 1.5-2.3 3.1-3.1 5.5zm5.6-7.9h1.6c.8-.8 1.6-.8 2.4-1.6v1.6c.8-.8 1.6-.8 2.4-1.6h-2.4v-3.9c-2.5 1.6-3.3 3.2-4 5.5zm7.8-10.2c1.6 0 2.4-.8 3.9-1.6v-3.1c-1.5.7-3.1 3.1-3.9 4.7zm4 32.2h-2.4c.8-.7 1.6-.7 2.4 0zm0-.7v.8c0-.1-.8-.8 0-.8zm2.3-38.6h1.6v3.1c1.6-1.6 3.1-3.1 3.9-5.5.8-.8 1.6-.8 1.6-1.6h-1.6l2.4-2.4v1.6l1.6-1.6 1.6-1.6h-1.6V740c-3.9 2.4-6.3 5.5-7.9 9.4-.8.9-1.6 1.7-1.6 2.5zm1.6 0v-2.4h1.6c0 .8-.8 1.6-1.6 2.4zm1.6-2.4c.8-.8 1.6-1.6 2.4-1.6v1.6zm6.3-5.5v1.6h-1.6c0-.8.8-.8 1.6-1.6zm0-4.7c.8 0 .8-.8 1.6-1.6zm2.3-1.6h1.6v3.9c2.4-2.4 4.7-4.7 5.5-7.9h-1.6l2.4-2.4V733.7c0-.8.8-.8 1.6-1.6h-1.6c0-.8.8-1.6 1.6-2.4v1.6c.8 0 1.6-.8 1.6-1.6h-1.6l1.6-1.6v-3.9c-3.9 3.1-7.9 6.3-10.2 11-.1 1-.9 1.8-.9 2.5zm4-1.5c-.8 0-1.6.8-2.4 1.6v-1.6zm1.5 27.5h1.6l-1.6 1.6zm6.3-40.1c.8 0 1.6-.8 1.6-.8l2.4-2.4h1.6v3.1c5.5-3.9 11-8.7 13.4-14.9h-1.6l2.4-2.4v2.4c.8-.8 1.6-1.6 1.6-2.4 0 0 1.6-.8.8-.8s-.8-.8-.8-.8c-.8-3.1-2.4-2.4-3.9-.8-4.7 4.7-10.2 9.4-14.2 15.7l-1.6 2.4c-.9.9-1.7.9-1.7 1.7zm0 6.3c0-.8.8-1.6 1.6-1.6h-1.6zm3.2 22h2.4l-2.4 1.6zm2.3 0v-2.4h1.6zm15.8-47.2v1.6h-1.6c0-.8.8-1.6 1.6-1.6zm-1.6 31.5h1.6c-.8.8-1.6.8-1.6 1.6zm1.6 0v-2.4h1.6c-.1.8-.8 1.6-1.6 2.4zm22-53.5v1.6l1.6-1.6 1.6-1.6h-1.6l1.6-1.6c-2.4.8-4.7 1.6-7.1 1.6-.8 0-.8.8-1.6 2.4-.8.8 0 2.4.8 3.1.8-.8 1.6-1.6 2.4-1.6v1.6h-1.6c0 .8.8.8 1.6 0l1.6-1.6h-1.6c.7-.8 2.3-1.5 2.3-2.3zm1.6 0h-1.6c0-.8.8-1.6 1.6-1.6zm1.5 17.3c2.4-.8 3.9-2.4 6.3-4.7 18.9-18.9 38.6-37 58.2-53.5 24.4-20.5 51.1-38.6 79.5-52.7 1.6-.8 3.1-.8 3.9-3.1-.8 0-1.6-.8-2.4 0-2.4 2.4-5.5 3.1-7.9 3.9-20.5 7.1-37.8 19.7-55.1 33-21.2 16.5-41.7 33-60.6 51.9l-20.5 19.7c-1.6 1.6-3.1 2.4-3.1 4.7 0 0 .8 0 .8.8zm3.2-22.8c-.8 0-.8 0-.8.8v.8h-1.6v1.6l1.6-1.6c.8 0 1.6-.8 1.6-1.6zm202.2-92.9c-4.7-1.6-8.7-1.6-12.6-1.6-14.9 0-28.3 5.5-40.9 10.2-15.7 6.3-27.5 22.8-44.1 22.8-.8 0-2.4.8-3.1 1.6-4.7 4.7-10.2 8.7-15.7 12.6-.8 0-.8.8-1.6 1.6-10.2 7.9-20.5 14.9-29.9 23.6l-1.6 1.6c-.8 0-.8-.8-.8-1.6 0 .8-.8 1.6-1.6 1.6.8 0 .8.8 1.6.8 0 .8-.8.8-1.6 1.6v-1.6l-1.6 1.6-7.9 7.9-2.4 2.4V667c-.8.8-1.6 1.6-1.6 2.4h1.6c-.8 0-1.6.8-1.6 1.6l-7.1 4.7c-7.1 4.7-14.9 11-20.5 18.9v2.4c-1.6 1.6-3.9 3.1-5.5 3.9-4.7 2.4-5.5 7.9-1.6 11.8 5.5 5.5 10.2 10.2 18.1 11.8 7.1 1.6 14.9 2.4 22 1.6 14.9-1.6 28.3-5.5 41.7-11.8 29.9-14.2 56.6-33.8 80.3-57.4 13.4-13.4 26-28.3 34.6-45.6 3.1-6.3 5.5-12.6 7.1-19.7 1-4.1-.6-6.5-3.7-7.3zm-198.3 88.9c-.8 0-.8 0-.8.8v.8h-.8l-.8.8v1.6c.8-.8 1.6-1.6 1.6-2.4.8 0 1.6-.8 1.6-1.6zm2.4-3.1l.8-.8v1.6h-1.6v2.4c.8-.8 1.6-1.6 1.6-2.4.8 0 1.6-.8 1.6-1.6h-1.6l2.4-2.4v1.6l1.6-1.6c7.1-3.1 11-7.9 15.7-13.4v-.8c.8-.8 1.6-.8 1.6-1.6h-1.6l2.4-2.4c.8 0 .8-.8 1.6-1.6v1.6c.8 0 1.6-.8 1.6-1.6h-1.6l1.6-1.6 2.4-2.4v1.6c.8 0 1.6-.8 1.6-1.6h-1.6l2.4-2.4v2.4c3.1-.8 5.5-3.1 7.1-5.5h-3.1c0-.8 0-.8.8-1.6.8 0 1.6-.8 3.1-.8v1.6l1.6-1.6 1.6-1.6h-1.6c.8-.8 1.6-1.6 1.6-2.4 0 .8.8 1.6.8 1.6 3.9-.8 7.1-3.9 9.4-7.1.8-.8 1.6-1.6 1.6-2.4h-1.6c.8-.8 1.6-1.6 2.4-1.6v1.6c0-.8.8-1.6 1.6-1.6h-1.6c0-.8.8-1.6 1.6-2.4v1.6c2.4 0 4.7-1.6 6.3-3.1h-3.9c0-.8 0-.8.8-1.6.8 0 1.6-.8 3.1-.8v1.6l1.6-1.6c2.4-.8 4.7-2.4 5.5-3.9h-3.1c.8-.8 2.4-1.6 3.9-2.4.8 0 .8-.8 1.6-1.6s1.6-2.4 3.1-3.1c.8 0 1.6-.8 3.1-.8v1.6c.8 0 .8-.8 1.6-1.6 1.6-.8 2.4-1.6 3.9-1.6-1.6 0-2.4 0-3.9-.8 1.6 0 3.1-.8 3.9-1.6v1.6c.8-.8 1.6-.8 1.6-1.6h-1.6l2.4-2.4v-1.6h3.9c.8-1.6 1.6-2.4 2.4-3.1l3.9-1.6v.8l3.1-2.4 3.1-3.1c4.7-1.6 10.2-4.7 14.2-7.9-6.3 0-11 3.1-15.7 7.1-3.9.8-7.1 3.1-10.2 5.5-1.6.8-3.9 2.4-5.5 3.9-4.7 1.6-8.7 4.7-11.8 7.9-6.3 3.1-11 7.1-15.7 11.8-8.7 5.5-16.5 12.6-23.6 19.7-7.9 5.5-14.2 11-19.7 17.3-5.9 5.2-9.8 12.3-14.5 18.6zm4.7-5.5v2.4h-1.6c0-.9.8-1.6 1.6-2.4zm15.7-11.8v-1.6c.8.8.8.8 0 1.6zm2.4-3.2v1.6c0-.8.8-1.6 1.6-1.6zm3.9-3.9v1.6c0-.8.8-1.6 1.6-1.6zm13.4-11.8v1.6h-1.6c0-.8.8-1.6 1.6-1.6zm3.9-3.9c-.8 0-1.6.8-2.4 1.6v-.8c.9-.1 1.7-.8 2.4-.8zm2.4 27.5h-.8l.8-.8zm17.3-44.1v2.4h-1.6zm6.3-3.1v1.6c.8-.8.8-1.6 1.6-1.6zm7.9-6.3c.8-.8.8-1.6 1.6-2.4v2.4zm7.8-5.5v1.6c.8-.8 2.4-1.6 3.9-1.6zm25.2 108.6c-1.6 0-2.4.8-3.1.8.8-.1 2.3-.1 3.1-.8zm6.3-4c1.6-.8 2.4-.8 3.9-.8 0-.8.8-.8 1.6-1.6v1.6c2.4-.8 4.7-1.6 5.5-3.1 3.1-1.6 6.3-3.1 7.9-6.3 3.9-.8 6.3-3.1 8.7-6.3 0-.8.8-.8 1.6-1.6h-1.6c0-.8.8-1.6 1.6-2.4v1.6c.8 0 1.6-.8 2.4-1.6h-2.4c.8-.8 1.6-1.6 2.4-1.6v-2.4c-1.6.8-2.4.8-3.9 1.6-8.7 3.9-14.9 11.8-22 17.3-2.4 1.6-4.7 2.4-6.3 4.7-2.4.8-3.9 1.6-5.5 3.9 3 .2 4.5-1.4 6.1-3zm47.2-18.1c-2.4 0-3.9.8-5.5 2.4-9.4 9.4-22.8 14.9-32.3 24.4-1.6 1.6-3.1 2.4-3.9 4.7-.8.8-2.4.8-3.1 1.6.8 0 2.4-.8 3.1-1.6 1.6-.8 3.1-.8 3.9-1.6 11-11 25.2-16.5 35.4-26.8zm-40.9 14.2c0 .8 0 .8-.8 1.6v-.8s.8 0 .8-.8zm4.7 0V696c.8.8.8 2.4 0 3.2zm1.6-126.7c1.6-.8 3.1-1.6 4.7-1.6-1.6 0-3.1 0-4.7 1.6zm7.1 118.8c0 .8 0 .8-.8 1.6 0-.8.8-1.6.8-2.4z"/></g></svg>