<svg enable-background="new 0 0 100 100" viewBox="0 0 100 100" xmlns="http://www.w3.org/2000/svg" xmlns:xlink="http://www.w3.org/1999/xlink"><linearGradient id="a"><stop offset="0" stop-color="#fff" stop-opacity=".7"/><stop offset=".99998" stop-color="#fff"/></linearGradient><linearGradient id="b" gradientTransform="matrix(1 0 0 -1 0 101.955383)" gradientUnits="userSpaceOnUse" x1="37.197186" x2="74.508293" xlink:href="#a" y1="35.866043" y2="35.866043"/><linearGradient id="c" gradientTransform="matrix(1 0 0 -1 0 101.955383)" gradientUnits="userSpaceOnUse" x1="37.197186" x2="74.508293" xlink:href="#a" y1="68.044724" y2="68.044724"/><linearGradient id="d" gradientTransform="matrix(1 0 0 -1 0 101.955383)" gradientUnits="userSpaceOnUse" x1="50.000011" x2="74.508286" xlink:href="#a" y1="57.318493" y2="57.318493"/><linearGradient id="e" gradientTransform="matrix(1 0 0 -1 0 101.955383)" gradientUnits="userSpaceOnUse" x1="50.000011" x2="74.508286" xlink:href="#a" y1="46.59227" y2="46.59227"/><path d="m39.8621407 56.7594643h3.0432586l3.2547913-13.5291176h-3.0129013l-1.9750481 9.6265411-2.4084511-9.6265411h-2.5595894l-2.4184608 9.6079483-1.9851704-9.6079483h-3.01301l3.2548981 13.5291176h3.0432625l2.3880996-9.0503579z" fill="none"/><path d="m50.5052719 60.9994316c-.0000038.7808685-.6330223 1.4138794-1.413887 1.4138794h-11.8941994v6.5600243c.0000038 1.3691788 1.1099434 2.4791183 2.4791222 2.4791183h32.3528671c1.3691788 0 2.4791183-1.1099396 2.4791183-2.4791107 0-.0000076 0-.0000076 0-.0000076v-8.2471085h-24.0030212z" fill="url(#b)" opacity=".8"/><path d="m72.0291748 28.5475464h-32.3528671c-1.3691788-.0000019-2.4791183 1.1099358-2.4791222 2.4791145v6.373127h11.8941994c.7808685 0 1.413887.6330185 1.413887 1.413887v.4601021h24.0030212v-8.2471161c0-1.369175-1.1099319-2.4791126-2.4791107-2.4791145z" fill="url(#c)" opacity=".2"/><path d="m50.505272 39.273773h24.003016v10.726229h-24.003016z" fill="url(#d)" opacity=".4"/><path d="m50.505272 50.000004h24.003016v10.726222h-24.003016z" fill="url(#e)" opacity=".6"/><path d="m49.0913849 37.3997841h-22.1857586c-.7808666 0-1.4138851.6330185-1.413887 1.4138832v.0000076 22.1857567c.0000019.7808685.6330204 1.4138832 1.413887 1.4138794h22.1857586c.7808647 0 1.4138832-.6330109 1.413887-1.4138794v-22.1857567c0-.7808685-.6330185-1.413887-1.413887-1.4138908zm-14.0057182 19.3597336h-3.0432587l-3.2548847-13.5291405h3.0130768l1.9851551 9.6079178 2.4184952-9.6079178h2.5595398l2.4084015 9.6265106 1.9750595-9.6265068h3.0129662l-3.2547722 13.5291367h-3.0432625l-2.3883095-9.0503998z" fill="#fff"/></svg>