<svg viewBox="0 0 24.5 32.06" xmlns="http://www.w3.org/2000/svg" xmlns:xlink="http://www.w3.org/1999/xlink"><linearGradient id="a" gradientUnits="userSpaceOnUse" x1="1.28" x2="1.28" y1="19.84" y2="30.6"><stop offset="0" stop-color="#f69e89"/><stop offset=".04" stop-color="#f69e89" stop-opacity=".95"/><stop offset=".31" stop-color="#f69e89" stop-opacity=".62"/><stop offset=".55" stop-color="#f69e89" stop-opacity=".35"/><stop offset=".76" stop-color="#f69e89" stop-opacity=".16"/><stop offset=".91" stop-color="#f69e89" stop-opacity=".04"/><stop offset="1" stop-color="#f69e89" stop-opacity="0"/></linearGradient><linearGradient id="b" gradientUnits="userSpaceOnUse" x1="15.35" x2="37.56" y1="15.3" y2="15.3"><stop offset="0" stop-color="#f69e89"/><stop offset=".14" stop-color="#f69e89" stop-opacity=".79"/><stop offset=".31" stop-color="#f69e89" stop-opacity=".55"/><stop offset=".48" stop-color="#f69e89" stop-opacity=".35"/><stop offset=".63" stop-color="#f69e89" stop-opacity=".2"/><stop offset=".78" stop-color="#f69e89" stop-opacity=".09"/><stop offset=".9" stop-color="#f69e89" stop-opacity=".02"/><stop offset="1" stop-color="#f69e89" stop-opacity="0"/></linearGradient><linearGradient id="c" gradientUnits="userSpaceOnUse" x1="5.37" x2="23.08" y1="11.48" y2="11.48"><stop offset="0" stop-color="#f69e89"/><stop offset="1" stop-color="#f69e89" stop-opacity="0"/></linearGradient><path d="m2.55 32.06v-30.78a1.28 1.28 0 1 0 -2.55 0v30.78z" fill="url(#a)" opacity=".75"/><path d="m23.5 7.65h-9.2v13.14a2.16 2.16 0 0 0 2.16 2.21h7a1 1 0 0 0 1-1l-1.83-6.08a2 2 0 0 1 0-1.15l1.87-6.12a1 1 0 0 0 -1-1z" fill="url(#b)"/><path d="m10.48 2.55h-7.93v15.3h9.2a2.55 2.55 0 0 1 2.55 2.55v-14a3.82 3.82 0 0 0 -3.82-3.85z" fill="#faebe6"/><path d="m10.48 2.55h-7.93v15.3h9.2a2.55 2.55 0 0 1 2.55 2.55v-14a3.82 3.82 0 0 0 -3.82-3.85z" fill="url(#c)"/></svg>