<svg viewBox="0 0 28.02 20.36" xmlns="http://www.w3.org/2000/svg" xmlns:xlink="http://www.w3.org/1999/xlink"><linearGradient id="a" gradientUnits="userSpaceOnUse" x1="5.43" x2="37.26" y1="9.56" y2="41.73"><stop offset="0" stop-color="#f69e89"/><stop offset=".13" stop-color="#f69e89" stop-opacity=".79"/><stop offset=".29" stop-color="#f69e89" stop-opacity=".55"/><stop offset=".45" stop-color="#f69e89" stop-opacity=".35"/><stop offset=".6" stop-color="#f69e89" stop-opacity=".2"/><stop offset=".74" stop-color="#f69e89" stop-opacity=".09"/><stop offset=".86" stop-color="#f69e89" stop-opacity=".02"/><stop offset=".95" stop-color="#f69e89" stop-opacity="0"/></linearGradient><linearGradient id="b" x1="13.18" x2="45.01" xlink:href="#a" y1="1.89" y2="34.06"/><path d="m6.34 0a6.33 6.33 0 0 0 -1.58 12.47l-2.08 6.92a.76.76 0 0 0 .72 1h3.37a.74.74 0 0 0 .69-.46l4.66-10.93a6.33 6.33 0 0 0 -5.78-9z" fill="url(#a)"/><path d="m28 6.34a6.34 6.34 0 1 0 -7.92 6.13l-2.08 6.92a.75.75 0 0 0 .72 1h3.37a.75.75 0 0 0 .69-.46l4.68-10.93a6.29 6.29 0 0 0 .54-2.66z" fill="url(#b)"/></svg>