<svg viewBox="0 0 32 24.79" xmlns="http://www.w3.org/2000/svg" xmlns:xlink="http://www.w3.org/1999/xlink"><linearGradient id="a" gradientUnits="userSpaceOnUse" x1="16.13" x2="29.93" y1="13.33" y2="34.44"><stop offset="0" stop-color="#f69e89"/><stop offset=".04" stop-color="#f6a38f"/><stop offset=".33" stop-color="#f8c2b5"/><stop offset=".59" stop-color="#f9d9d0"/><stop offset=".82" stop-color="#fae6e0"/><stop offset="1" stop-color="#faebe6"/></linearGradient><linearGradient id="b" x1="27.76" x2="41.56" xlink:href="#a" y1="5.73" y2="26.84"/><linearGradient id="c" x1="24.25" x2="38.05" xlink:href="#a" y1="8.02" y2="29.14"/><path d="m22.59 12.37a13.67 13.67 0 0 1 1.57-6.55 12.89 12.89 0 0 1 1.21-1.82 1.7 1.7 0 0 0 .39-1.05v-2.33a.62.62 0 0 0 -.62-.62h-5.06a.55.55 0 0 0 -.55.55v1.05l-.15-.08a13.87 13.87 0 0 0 -6.52-1.52 13.76 13.76 0 0 0 -6.6 1.58 11.74 11.74 0 0 0 -4.6 4.42 12.42 12.42 0 0 0 -1.66 6.37 12.52 12.52 0 0 0 1.66 6.41 11.52 11.52 0 0 0 4.6 4.42 13.65 13.65 0 0 0 6.6 1.59 13.87 13.87 0 0 0 6.52-1.52l.15-.08v1a.55.55 0 0 0 .55.55h5.06a.62.62 0 0 0 .62-.62v-2.27a1.71 1.71 0 0 0 -.39-1.06 12.78 12.78 0 0 1 -1.21-1.79 13.81 13.81 0 0 1 -1.57-6.63zm-4.95 5.1a6.37 6.37 0 0 1 -4.78 1.92 6.26 6.26 0 0 1 -4.76-1.92 7 7 0 0 1 -1.87-5.1 7.06 7.06 0 0 1 1.87-5.1 6.29 6.29 0 0 1 4.76-1.92 6.34 6.34 0 0 1 4.78 1.93 6.91 6.91 0 0 1 1.76 5.09 7 7 0 0 1 -1.76 5.1z" fill="url(#a)"/><circle cx="29.53" cy="8.43" fill="url(#b)" r="2.47"/><circle cx="29.53" cy="16.1" fill="url(#c)" r="2.47"/></svg>