<svg viewBox="0 0 25.58 28.75" xmlns="http://www.w3.org/2000/svg" xmlns:xlink="http://www.w3.org/1999/xlink"><linearGradient id="a" gradientUnits="userSpaceOnUse" x1="-6.24" x2="21.69" y1="-4.42" y2="25.68"><stop offset="0" stop-color="#f69e89"/><stop offset=".14" stop-color="#f69e89" stop-opacity=".79"/><stop offset=".31" stop-color="#f69e89" stop-opacity=".55"/><stop offset=".48" stop-color="#f69e89" stop-opacity=".35"/><stop offset=".63" stop-color="#f69e89" stop-opacity=".2"/><stop offset=".78" stop-color="#f69e89" stop-opacity=".09"/><stop offset=".9" stop-color="#f69e89" stop-opacity=".02"/><stop offset="1" stop-color="#f69e89" stop-opacity="0"/></linearGradient><linearGradient id="b" gradientUnits="userSpaceOnUse" x1="24.64" x2="20.89" y1="4.98" y2="8.73"><stop offset="0" stop-color="#f69e88"/><stop offset="1" stop-color="#faebe6"/></linearGradient><linearGradient id="c" gradientUnits="userSpaceOnUse" x1="23.28" x2="-7.14" y1="9.06" y2="39.47"><stop offset="0" stop-color="#f69e89"/><stop offset="1" stop-color="#faebe6"/></linearGradient><path d="m8.33 4h9.67v-2a2 2 0 0 0 -2-2h-14a2 2 0 0 0 -2 2v20a2 2 0 0 0 2 2h4.33v-18a2 2 0 0 1 2-2z" fill="url(#a)" opacity=".5"/><path d="m22.67 10h2.91v-.55a2 2 0 0 0 -.58-1.45l-3.45-3.41a2 2 0 0 0 -1.42-.59h-.46v3a3 3 0 0 0 3 3z" fill="url(#b)"/><path d="m22.67 10a3 3 0 0 1 -3-3v-3h-11.34a2 2 0 0 0 -2 2v20.75a2 2 0 0 0 2 2h15.25a2 2 0 0 0 2-2v-16.75z" fill="url(#c)"/></svg>