<svg viewBox="0 0 196.26 48.83" xmlns="http://www.w3.org/2000/svg"><path d="M55.02 36.99h-5.26c-.4 0-.79.32-.85.71-.24 1.45-.85 2.68-1.79 3.64-1.29 1.32-2.89 1.97-4.89 1.97-1.99 0-3.58-.64-4.86-1.97-.94-.97-1.53-2.19-1.78-3.64-.06-.38-.45-.71-.85-.71h-5.25c-.1 0-.19.04-.26.11s-.1.17-.09.26c.16 1.95.71 3.74 1.64 5.32 1.12 1.92 2.71 3.45 4.71 4.52 1.99 1.07 4.26 1.62 6.74 1.62 2.51 0 4.79-.54 6.79-1.62s3.58-2.6 4.71-4.52c.91-1.56 1.46-3.33 1.63-5.25.01-.04.01-.07.01-.09-.01-.19-.16-.35-.35-.35zm22.25-24.56c-1.87-1.05-4.02-1.58-6.39-1.58-2.4 0-4.58.54-6.5 1.6a11.654 11.654 0 0 0-4.52 4.48c-1.08 1.9-1.63 4.07-1.63 6.43 0 2.4.56 4.58 1.67 6.48 1.11 1.91 2.71 3.41 4.75 4.48 2.03 1.06 4.41 1.6 7.07 1.6 2.09 0 3.99-.34 5.66-1.01 1.68-.67 3.09-1.68 4.19-3 .11-.13.11-.32 0-.45l-2.99-3.43a.351.351 0 0 0-.25-.12.4.4 0 0 0-.26.1c-1.62 1.65-3.71 2.48-6.21 2.48-1.96 0-3.63-.49-4.94-1.47-1.18-.87-1.93-1.99-2.31-3.41l-.03-.13h18.25c.18 0 .33-.14.35-.32.06-.73.09-1.28.09-1.68 0-2.48-.53-4.71-1.58-6.61-1.06-1.89-2.54-3.39-4.42-4.44zM64.52 21.1l.03-.13c.32-1.42 1-2.59 2.04-3.47 1.16-.99 2.61-1.5 4.3-1.5 1.72 0 3.17.51 4.32 1.52 1.02.9 1.69 2.06 1.98 3.46l.03.12zm36.05-9.94c-1.79 0-3.42.29-4.86.87a9.342 9.342 0 0 0-2.83 1.77l-.17.16v-1.6c0-.52-.42-.94-.94-.94H87.6c-.49 0-.89.4-.89.89v22.72c0 .49.4.89.89.89h4.49c.49 0 .89-.4.89-.89V23.54c0-2.21.57-3.92 1.69-5.09 1.11-1.16 2.66-1.74 4.61-1.74 1.7 0 3.03.5 3.93 1.47.91.98 1.38 2.49 1.38 4.46v12.38c0 .49.4.89.89.89h4.49c.49 0 .89-.4.89-.89v-13.1c0-3.53-.95-6.24-2.83-8.05-1.87-1.8-4.38-2.71-7.46-2.71zM138.81.91h-4.36a.95.95 0 0 0-.95.95v11.98l-.17-.16a8.863 8.863 0 0 0-2.69-1.69c-1.34-.55-2.84-.83-4.46-.83-2.34 0-4.47.52-6.34 1.56a11.34 11.34 0 0 0-4.44 4.41c-1.06 1.89-1.61 4.09-1.61 6.54 0 2.46.54 4.67 1.6 6.57 1.07 1.91 2.56 3.4 4.44 4.44 1.87 1.03 4 1.56 6.34 1.56 1.67 0 3.22-.29 4.61-.87a8.883 8.883 0 0 0 2.75-1.79l.17-.17v1.56c0 .53.43.95.95.95h4.14c.53 0 .95-.43.95-.95V1.86c.02-.53-.4-.95-.93-.95zm-6.12 26.52c-.59 1.07-1.4 1.9-2.41 2.47-1.01.58-2.17.87-3.44.87s-2.43-.29-3.44-.87c-1.01-.57-1.82-1.41-2.41-2.47-.59-1.07-.89-2.33-.89-3.75s.3-2.68.89-3.75 1.4-1.9 2.41-2.47c1.01-.58 2.17-.87 3.44-.87s2.43.29 3.44.87c1.01.57 1.82 1.41 2.41 2.47.59 1.07.89 2.34.89 3.75s-.3 2.67-.89 3.75zm25.62-16.27c-3.36.06-5.92 1.01-7.6 2.84l-.18.19v-2.42c0-.19-.16-.35-.35-.35h-4.89a.77.77 0 0 0-.77.77v22.97c0 .42.34.77.77.77h4.74c.42 0 .77-.34.77-.77V24.03c0-2.27.58-4.03 1.73-5.22s2.77-1.79 4.83-1.79c.36 0 .78.04 1.23.13.1.02.21-.01.29-.07.08-.07.13-.16.13-.27v-4.96c0-.18-.08-.36-.21-.49a.672.672 0 0 0-.49-.2zm9.34.26h-4.77c-.41 0-.75.34-.75.75v23c0 .41.34.75.75.75h4.77c.41 0 .75-.34.75-.75v-23c0-.41-.34-.75-.75-.75zm28.54 23.94l-9.15-11.96.05-.06 8.68-11.33a.346.346 0 0 0-.24-.59h-5.45c-.47 0-.91.22-1.19.6l-5.22 6.97-5.22-6.97c-.28-.37-.73-.6-1.19-.6h-5.62c-.13 0-.25.07-.31.19s-.05.26.03.37l8.71 11.51-9.11 11.87c-.08.11-.09.25-.04.37.06.12.18.19.31.19h5.58c.47 0 .92-.22 1.2-.6l5.53-7.41.08.11 5.4 7.29c.28.38.73.6 1.2.6h5.71c.13 0 .25-.08.31-.19.04-.11.03-.25-.05-.36zM25.29 11.08H20.2a.56.56 0 0 0-.56.56v1.05l-.15-.08c-1.93-1.02-4.14-1.53-6.56-1.53-2.44 0-4.67.54-6.64 1.59-1.97 1.06-3.53 2.55-4.63 4.43S0 21.14 0 23.53s.56 4.56 1.67 6.45 2.67 3.39 4.63 4.45 4.19 1.59 6.64 1.59c2.42 0 4.63-.52 6.56-1.53l.15-.08v.99c0 .31.25.56.56.56h5.09c.34 0 .62-.28.62-.62V11.7a.632.632 0 0 0-.63-.62zm-7.54 17.58c-1.27 1.3-2.85 1.94-4.81 1.94s-3.53-.63-4.79-1.94c-1.25-1.29-1.88-3.01-1.88-5.13s.63-3.84 1.88-5.13c1.26-1.3 2.83-1.94 4.79-1.94s3.54.63 4.81 1.94c1.26 1.29 1.9 3.01 1.9 5.13s-.64 3.84-1.9 5.13zM165.27 0c-1.99 0-3.6 1.62-3.6 3.6 0 1.99 1.62 3.6 3.6 3.6 1.99 0 3.6-1.62 3.6-3.6s-1.62-3.6-3.6-3.6zM54.95 10.8c-2.7.14-4.21 1.4-4.94 2.31-.35-.24-.7-.47-1.08-.68-2.01-1.08-4.31-1.63-6.83-1.63-2.5 0-4.78.55-6.79 1.63s-3.61 2.61-4.74 4.53-1.7 4.13-1.7 6.57.57 4.66 1.7 6.59c.49.85 1.09 1.63 1.78 2.34.86.88 1.85 1.62 2.96 2.22 2.01 1.08 4.29 1.63 6.79 1.63 2.53 0 4.83-.55 6.83-1.63 1.1-.59 2.1-1.34 2.96-2.22.69-.71 1.29-1.49 1.78-2.34 1.13-1.94 1.7-4.15 1.7-6.59s-.57-4.65-1.7-6.57c-.09-.15-.19-.27-.29-.42l1.63.27c.46 0 .83-.37.83-.83v-4.34a.85.85 0 0 0-.89-.84zm-7.94 17.98c-1.3 1.33-2.91 1.98-4.92 1.98s-3.61-.65-4.9-1.98c-1.27-1.32-1.92-3.08-1.92-5.25 0-2.16.65-3.93 1.92-5.25 1.29-1.33 2.89-1.98 4.9-1.98s3.62.65 4.92 1.98c1.29 1.32 1.94 3.08 1.94 5.25s-.65 3.93-1.94 5.25z" fill="#0f6973"/></svg>
