<svg viewBox="0 0 52.84 52.84" xmlns="http://www.w3.org/2000/svg"><path d="M33.66 26.4c0-2.65.58-5.07 1.73-7.2.39-.72.83-1.39 1.33-2 .27-.33.43-.74.43-1.16v-2.55c0-.38-.3-.68-.68-.68h-5.56c-.34 0-.61.27-.61.61v1.15l-.16-.08c-2.11-1.11-4.53-1.67-7.17-1.67-2.67 0-5.11.59-7.25 1.74-2.15 1.16-3.85 2.78-5.06 4.84-1.21 2.05-1.82 4.41-1.82 7.02s.61 4.98 1.82 7.04c1.21 2.07 2.91 3.71 5.06 4.86 2.14 1.16 4.58 1.74 7.25 1.74 2.64 0 5.06-.56 7.17-1.67l.16-.08v1.08c0 .34.27.61.61.61h5.56c.38 0 .68-.3.68-.68v-2.48c0-.43-.16-.83-.43-1.16-.5-.62-.94-1.28-1.33-2-1.14-2.16-1.73-4.6-1.73-7.28zM28.22 32c-1.39 1.42-3.11 2.12-5.26 2.12-2.14 0-3.86-.69-5.23-2.11-1.36-1.41-2.05-3.29-2.05-5.6s.69-4.2 2.05-5.6c1.38-1.42 3.09-2.12 5.23-2.12s3.86.69 5.26 2.12c1.38 1.41 1.93 3.29 1.93 5.6.01 2.3-.55 4.18-1.93 5.59z" fill="#ffffff"/><g fill="#f59a83"><circle cx="41.29" cy="22.07" r="2.72"/><circle cx="41.29" cy="30.49" r="2.72"/></g></svg>