<svg fill="none" viewBox="0 0 137 137" xmlns="http://www.w3.org/2000/svg" xmlns:xlink="http://www.w3.org/1999/xlink"><filter id="a" color-interpolation-filters="sRGB" filterUnits="userSpaceOnUse" height="91" width="93.875" x="18" y="29"><feFlood flood-opacity="0" result="BackgroundImageFix"/><feColorMatrix in="SourceAlpha" values="0 0 0 0 0 0 0 0 0 0 0 0 0 0 0 0 0 0 127 0"/><feOffset dx="6" dy="6"/><feGaussianBlur stdDeviation="3.5"/><feColorMatrix values="0 0 0 0 0.0196078 0 0 0 0 0.215686 0 0 0 0 0.235294 0 0 0 0.3 0"/><feBlend in2="BackgroundImageFix" mode="multiply" result="effect1_dropShadow"/><feBlend in="SourceGraphic" in2="effect1_dropShadow" result="shape"/></filter><filter id="b" color-interpolation-filters="sRGB" filterUnits="userSpaceOnUse" height="29.287" width="29.188" x="101.813" y="47.684"><feFlood flood-opacity="0" result="BackgroundImageFix"/><feColorMatrix in="SourceAlpha" values="0 0 0 0 0 0 0 0 0 0 0 0 0 0 0 0 0 0 127 0"/><feOffset dx="6" dy="6"/><feGaussianBlur stdDeviation="3.5"/><feColorMatrix values="0 0 0 0 0.0196078 0 0 0 0 0.215686 0 0 0 0 0.235294 0 0 0 0.3 0"/><feBlend in2="BackgroundImageFix" mode="multiply" result="effect1_dropShadow"/><feBlend in="SourceGraphic" in2="effect1_dropShadow" result="shape"/></filter><filter id="c" color-interpolation-filters="sRGB" filterUnits="userSpaceOnUse" height="29.287" width="29.188" x="101.813" y="71.463"><feFlood flood-opacity="0" result="BackgroundImageFix"/><feColorMatrix in="SourceAlpha" values="0 0 0 0 0 0 0 0 0 0 0 0 0 0 0 0 0 0 127 0"/><feOffset dx="6" dy="6"/><feGaussianBlur stdDeviation="3.5"/><feColorMatrix values="0 0 0 0 0.0196078 0 0 0 0 0.215686 0 0 0 0 0.235294 0 0 0 0.3 0"/><feBlend in2="BackgroundImageFix" mode="multiply" result="effect1_dropShadow"/><feBlend in="SourceGraphic" in2="effect1_dropShadow" result="shape"/></filter><linearGradient id="d" gradientUnits="userSpaceOnUse" x1="111" x2="-48" y1="104" y2="-38"><stop offset=".087" stop-color="#0f6973"/><stop offset="1" stop-color="#23a6b0"/></linearGradient><rect fill="url(#d)" height="137" rx="25" width="137"/><g filter="url(#a)"><path d="m88.75 68.5c0-7.36 1.688-14.438 4.781-20.382 1.125-1.982 2.25-3.964 3.656-5.662.844-.85 1.126-1.982 1.126-3.397v-7.077c.28-1.133-.563-1.982-1.688-1.982h-15.75c-.844 0-1.688.85-1.688 1.698v3.398l-.562-.283c-5.625-3.116-12.375-4.813-19.969-4.813-7.312 0-14.343 1.698-20.25 4.813-6.187 3.397-10.968 7.926-14.343 13.87-3.375 5.664-5.063 12.457-5.063 19.817s1.688 14.154 5.063 19.816c3.375 5.945 8.156 10.474 14.343 13.872 5.907 3.397 12.938 4.812 20.25 4.812 7.313 0 14.344-1.699 20.25-4.812l.563-.284v3.114c0 .85.844 1.699 1.687 1.699h15.75c1.125 0 1.969-.849 1.969-1.982v-7.077c0-1.132-.563-2.265-1.125-3.397-1.406-1.698-2.531-3.68-3.656-5.662-3.656-5.662-5.344-12.456-5.344-20.099zm-15.188 15.853c-3.937 3.963-8.718 5.945-14.906 5.945-5.906 0-10.968-1.982-14.625-5.945-3.937-3.963-5.906-9.342-5.906-15.853s1.969-11.89 5.906-15.853c3.938-3.963 8.719-5.945 14.625-5.945 5.907 0 10.969 1.982 14.907 5.945 3.937 3.963 5.343 9.343 5.343 15.853 0 6.511-1.406 11.89-5.344 15.853z" fill="#fff"/></g><g filter="url(#b)"><path d="m110.406 63.97c4.194 0 7.594-3.422 7.594-7.643s-3.4-7.643-7.594-7.643-7.593 3.422-7.593 7.643 3.399 7.644 7.593 7.644z" fill="#f39e86"/></g><g filter="url(#c)"><path d="m110.406 87.75c4.194 0 7.594-3.422 7.594-7.644 0-4.22-3.4-7.643-7.594-7.643s-7.593 3.422-7.593 7.644c0 4.22 3.399 7.643 7.593 7.643z" fill="#f39e86"/></g></svg>