<svg enable-background="new 0 0 1257.7 1063.9" viewBox="0 0 1257.7 1063.9" xmlns="http://www.w3.org/2000/svg"><path d="m770.1 1063.9h-491.3c-153.3 0-278.8-125.5-278.8-278.8v-491.4c0-153.3 125.5-278.8 278.8-278.8h491.3c153.3 0 278.8 125.5 278.8 278.8v491.3c.1 153.4-125.4 278.9-278.8 278.9z" fill="#edf1ee"/><path clip-rule="evenodd" d="m1220.2 9.8c9 9 18 18 27 27 14 14 14 36 0 50-156 156-472 472-628 629-30 30-44 30-74 0-90-90-179-179-268-268-14-14-14-37 0-50 9-9 17-18 26-27 14-14 37-14 51 0 76 76 152 152 228 229 143-143 445-446 588-590 14-13 37-13 50 0z" fill="#0f6973" fill-rule="evenodd"/></svg>