<svg enable-background="new 0 0 100 100" viewBox="0 0 100 100" xmlns="http://www.w3.org/2000/svg" xmlns:xlink="http://www.w3.org/1999/xlink"><linearGradient id="a"><stop offset="0" stop-color="#fff" stop-opacity=".7"/><stop offset=".99998" stop-color="#fff"/></linearGradient><linearGradient id="b" gradientTransform="matrix(1 0 0 -1 0 101.955383)" gradientUnits="userSpaceOnUse" x1="37.197182" x2="74.508293" xlink:href="#a" y1="35.866043" y2="35.866043"/><linearGradient id="c" gradientTransform="matrix(1 0 0 -1 0 101.955383)" gradientUnits="userSpaceOnUse" x1="37.197182" x2="55.85273" xlink:href="#a" y1="68.044724" y2="68.044724"/><linearGradient id="d" gradientTransform="matrix(1 0 0 -1 0 101.955383)" gradientUnits="userSpaceOnUse" x1="45.019981" x2="55.852737" xlink:href="#a" y1="57.318493" y2="57.318493"/><linearGradient id="e" gradientTransform="matrix(1 0 0 -1 0 101.955383)" gradientUnits="userSpaceOnUse" x1="45.019981" x2="55.852737" xlink:href="#a" y1="46.59227" y2="46.59227"/><linearGradient id="f" gradientTransform="matrix(1 0 0 -1 0 101.955383)" gradientUnits="userSpaceOnUse" x1="55.85273" x2="74.508293" xlink:href="#a" y1="68.044724" y2="68.044724"/><linearGradient id="g" gradientTransform="matrix(1 0 0 -1 0 101.955383)" gradientUnits="userSpaceOnUse" x1="55.852734" x2="74.508286" xlink:href="#a" y1="57.318493" y2="57.318493"/><linearGradient id="h" gradientTransform="matrix(1 0 0 -1 0 101.955383)" gradientUnits="userSpaceOnUse" x1="55.852734" x2="74.508286" xlink:href="#a" y1="46.59227" y2="46.59227"/><path d="m40.6155281 56.7594643h3.5167008l-4.3833886-6.8202172 4.2726174-6.7089004h-3.4766579l-2.7508812 4.6646614-2.750988-4.6646614h-3.4766617l4.2726212 6.7089004-4.3835011 6.8202172h3.5170307l2.8214989-4.7389069z" fill="none"/><path d="m50.5052719 60.7262268v.2732048c.0000038.7808647-.6330147 1.4138794-1.4138756 1.4138794-.0000038 0-.0000076 0-.0000114 0h-11.8942032v6.5600243c0 1.3691788 1.1099396 2.4791183 2.4791183 2.4791183h.0000153 32.3528595c1.3691788 0 2.4791183-1.1099396 2.4791183-2.4791107 0-.0000076 0-.0000076 0-.0000076v-8.2471085z" fill="url(#b)" opacity=".8"/><path d="m50.5052719 38.8136749v.4600983h5.3474579v-10.7262268h-16.1764145c-1.3691788-.0000095-2.479126 1.1099205-2.4791336 2.4790993v.0000153 6.373127h11.8942032c.7808647-.0000038 1.4138832.633007 1.413887 1.4138718z" fill="url(#c)" opacity=".2"/><path d="m50.505272 39.273773h5.347461v10.726229h-5.347461z" fill="url(#d)" opacity=".4"/><path d="m50.505272 50.000004h5.347461v10.726222h-5.347461z" fill="url(#e)" opacity=".6"/><path d="m72.0291748 28.5475464h-16.176445v10.7262268h18.6555634v-8.2471123c0-1.369175-1.1099319-2.4791126-2.4791107-2.4791145-.0000001 0-.0000077 0-.0000077 0z" fill="url(#f)" opacity=".4"/><path d="m55.852734 39.273773h18.655554v10.726229h-18.655554z" fill="url(#g)" opacity=".6"/><path d="m55.852734 50.000004h18.655554v10.726222h-18.655554z" fill="url(#h)" opacity=".8"/><path d="m49.0913849 37.3997841h-22.1857586c-.7808647 0-1.4138832.6330109-1.413887 1.4138756v.0000153 22.1857567c0 .7808647.6330147 1.4138794 1.4138794 1.4138794h.0000076 22.1857586c.7808647.0000038 1.4138832-.633007 1.413887-1.413868 0-.0000038 0-.0000076 0-.0000114v-22.1857568c.0000038-.7808647-.633007-1.4138832-1.4138718-1.4138908-.0000076 0-.0000076 0-.0000152 0zm-14.1189652 19.3597336h-3.5169945l4.3834572-6.8203201-4.2725983-6.7088203h3.4766045l2.7510719 4.6645813 2.7508583-4.6645813h3.4766045l-4.2725983 6.7088203 4.3834572 6.8203201h-3.516777l-2.8215446-4.7389107z" fill="#fff"/></svg>