<svg xmlns="http://www.w3.org/2000/svg" viewBox="0 0 295.63 279.17"><path fill="#f59d89" d="M61.22 226.67c15.81-10.25 31.42-17.65 34.57-9.21 1.51 4.06-8.5 5.37-11.11 6.98-24.01 14.82-45.87 32.15-67.85 49.77-4.09 3.28-13.04 8.62-16.13 1.28-.87-2.07-.74-4.4-.59-6.64C1.4 248.97 2.7 229.09 4 209.21c.31-4.76.16-47.83 4.86-47.83 13.43-6.82 5.67 39.98 6.18 46.52.43 5.52-1.3 29.5-1.14 35.01 6.26-12.18 19.75-41.39 26.65-53.1 6.65-11.29 13.37-22.55 20.5-33.54 25.09-38.65 57.18-70.85 95.35-96.64 12.36-8.35 25.2-15.98 38.43-22.87 15.21-7.93 38.78-18.14 54.53-24.89C262.91 6.06 270.6 2.52 285.32.54c4.06-.55 8.64-1.6 9.99 2.27 2.66 7.66-12.94 8.13-17.08 9.55-31.82 10.84-61.87 24.14-90.05 39.95C129.75 85.1 84.81 138.15 51.14 195.9c-9.67 16.6-23.1 37.06-25.33 56.51 12.43-6.66 23.42-17.97 35.41-25.74z"/></svg>